<?xml version="1.0" standalone="no"?>
<!DOCTYPE svg PUBLIC "-//W3C//DTD SVG 1.0//EN" "http://www.w3.org/TR/2001/REC-SVG-20010904/DTD/svg10.dtd">
<svg xmlns="http://www.w3.org/2000/svg" xmlns:xlink="http://www.w3.org/1999/xlink" id="body_1" width="2048" height="1406">

<g transform="matrix(1.5 0 0 1.5 256.00006 -0)">
    <path d="M594.6 590.99L594.41 589.21L594.51 588.62L596.39 584.07L597.84 581.35L600.18 578.34L600.34 578.24L600.54 578.26L600.87 578.39L601.11 578.6L600.94 578.87L599.78 579.98L598.79 581.2L597.37 583.86L597.36 584.09L597.54 584.24L597.83 584.36L597.96 584.37L598.06 584.26L599.2 581.45L599.46 581.01L599.88 580.67L600.79 580.01L601.47 579.19L602 577.91L602.14 576.38L602.45 575.44L605.18 572.26L606.82 570.81L608.79 569.63L610.65 568.23L610.87 568.15L611.02 568.33L611.11 568.58L611.12 568.74L611.04 568.83L609.13 570.4L608.98 570.83L609.35 570.79L610.45 570.18L611.2 569.36L611.61 568.23L611.78 567.78L612.11 567.45L614.07 566.24L614.53 566.19L614.74 566.62L614.82 566.89L614.98 567.08L615.22 567.17L615.49 566.48L615.82 565.5L616.28 565.03L616.92 564.68L621.17 562.89L623.22 562.18L625.54 561.95L625.94 562.08L626.12 562.49L626.17 562.66L626.57 562.83L627.13 562.88L628.12 562.87L628.84 562.57L629.1 562.22L628.69 562.11L627.27 562.11L625.84 561.95L627.2 561.47L631.87 560.27L633.72 560.04L636.64 560.08L643.38 560.17L646.95 560.23L650.07 560.61L653.68 561.39L657.05 562.33L660.15 563.41L663.01 564.64L664 565.47L664.37 566.6L664.47 567.08L665.04 567.69L666.12 568.08L666.22 568.07L666.3 568.01L666.52 567.73L666.59 567.51L666.39 567.36L665.25 566.72L665.16 566.62L665 566.21L665.4 566.03L666.3 566.2L668.69 567.85L670.86 569.61L672.81 571.47L674.54 573.44L674.89 573.77L675.3 573.96L675.92 574.29L676.47 574.86L678.94 577.96L679.62 578.74L680.25 580L680.85 581.25L681.5 582.13L681.71 582.54L681.62 583L681.23 583.69L680.96 584.34L681.05 584.7L681.14 584.81L681.52 584.97L681.78 584.66L681.93 584.3L682.24 584.04L682.62 584.15L682.71 584.27L684.64 588.58L685.93 592.64L686.01 593.85L685.72 594.7L685.01 595.81L684.93 595.93L684.85 596.08L684.83 596.47L685.03 596.8L685.41 596.71L686.39 596.24L686.86 596.35L686.99 596.79L687.09 599.49L687.6 602.34L687.9 603.95L688 605.84L687.84 607.75L686.51 615.85L685.38 620.95L684.37 623.68L682.28 628.44L681.37 629.91L680.28 630.91L678.59 631.96L678.28 632.14L678.11 632.36L678.14 632.68L678.36 632.89L678.55 632.92L678.67 632.78L679.02 631.9L679.22 631.68L679.49 631.81L679.85 632.17L679.92 632.29L679.87 632.43L678.83 633.58L677.61 634.37L677.09 634.59L676.67 634.82L676.35 635.22L676.31 635.29L675.66 636.1L674.73 636.75L674.35 637.09L674.24 637.61L674.16 638.53L673.83 639.27L673.34 639.78L672.67 640.15L672.27 640.48L672.12 640.99L671.98 642.55L671.47 643.9L671.22 644.29L671.09 644.67L671.5 644.69L672.11 644.53L673.97 644.26L674.18 644.29L678 644.86L681.31 645.16L682.39 645.34L683.47 645.72L685.56 646.74L685.81 646.78L685.89 646.55L685.89 646.12L685.86 646.01L685.77 645.94L684.78 645.3L684.4 644.83L684.25 644.33L684.84 644.37L685.2 644.58L685.62 644.71L685.89 644.37L686.57 643.07L686.93 642.64L687.33 642.38L687.85 642.4L688.73 642.51L689.46 642.32L689.72 642.3L689.8 642.54L689.8 650.08L689.68 650.52L689.3 650.79L688.68 651.02L688.37 651.27L688.42 651.66L688.67 652.24L688.89 653.35L688.84 654.55L688.53 655.84L687.94 657.22L687.08 658.65L686.19 659.45L685.2 659.8L683.88 659.86L679.41 659.73L676.34 659.87L674.97 659.91L673.67 659.7L671.95 658.99L669.54 657.99L665.62 656.35L664.21 655.52L663.14 654.67L662.75 653.84L662.55 653.11L661.71 652.34L661.06 652.13L661.45 652.68L661.91 653.25L661.99 653.62L661.81 653.84L661.55 653.75L661.5 653.71L659.86 652.52L658.61 651.99L656.75 651.97L653.18 652.87L650.09 653.67L647.73 653.9L643.09 654.13L637.89 654.92L637.5 654.87L637.31 654.54L637.31 654.52L637.49 653.86L637.73 653.14L637 653.11L632.74 653.8L630.36 653.85L627.97 653.66L625.55 653.24L623.12 652.58L622.92 652.36L623.01 652.07L623.16 652L623.58 651.77L623.76 651.41L623.56 651.08L623.46 651.02L622.86 651.12L621.83 651.68L621.63 651.75L620.72 651.7L616.36 649.94L612.41 647.6L611.09 646.61L610.88 646.34L610.82 646.05L610.87 645.74L610.87 645.65L610.78 645.62L609.86 645.55L609.07 645.25L608.32 644.62L607.74 643.68L607.54 643.46L607.24 643.46L606.87 643.58L606.33 643.53L606.4 643.1L606.54 642.84L606.58 642.73L606.52 642.42L605.79 641.68L605.05 641.66L604.58 641.65L604.24 641.41L601.21 637.79L599.86 635.87L599.71 635.05L600.03 634.39L600.79 633.81L600.81 633.79L600.86 633.36L600.52 633.18L600.31 633.28L599.2 634.69L599.02 634.87L598.79 634.9L598.72 634.89L598.49 634.78L598.33 634.57L598.35 634.31L598.52 633.91L598.55 633.48L598.22 633.21L597.19 632.51L596.28 631.29L596.16 630.93L596.23 630.52L596.55 629.72L596.58 629.38L596.31 629.16L595.8 628.95L595.45 628.69L595.31 628.29L595.31 628.18L595.74 627.55L595.76 627.53L595.97 626.94L595.89 626.62L595.58 626.36L595.2 626.46L595.11 626.59L594.88 626.78L594.55 626.85L594.31 626.63L594.13 625.88L594.48 625.05L594.62 624.69L594.41 624.36L593.65 623.76L593.09 622.92L593.4 621.96L593.84 621.15L593.84 620.55L593.54 620.24L593.16 620.42L592.89 620.69L592.58 620.84L592.37 620.58L592.11 619.61L592.06 618.64L592.47 617.03L592.53 616.64L592.34 616.3L591.79 615.76L591.47 615.29L591.35 614.75L591.36 604.41L591.62 599.56L591.73 599.26L591.97 599.46L592.16 599.71L592.35 599.82L592.46 599.73L592.56 599.54L592.69 598.51L592.35 594.61L592.46 594.29L592.75 594.45L593.05 594.74L593.28 594.85L593.47 594.69L593.83 593.8L593.87 592.96L593.58 592.14L593.42 591.45L593.64 591.35L593.91 591.38L594.02 591.41L594.49 591.44L594.6 590.99zM635.9735 561.3317L635.5182 561.0906L634.4724 561.0718L633.4485 561.2862L633.0465 561.6083L633.5018 561.8494L634.5476 561.8682L635.5715 561.6538L635.9735 561.3317zM649.562 561.7099L648.9214 561.3936L647.331 561.1513L645.7224 561.125L645.038 561.3301L645.6786 561.6464L647.269 561.8887L648.8776 561.915L649.562 561.7099zM631.26 561.55L631.22 561.58L631.27 561.78L631.74 561.56L631.91 561.36L631.65 561.41L631.26 561.55zM653.2258 562.9271L652.9351 562.6029L652.1025 562.2537L651.2157 562.0838L650.7942 562.1929L651.0849 562.5171L651.9175 562.8663L652.8043 563.0362L653.2258 562.9271zM624.1243 563.2202L623.7065 563.056L622.8691 563.1987L622.1024 563.5648L621.8557 563.9398L622.2735 564.104L623.1109 563.9613L623.8776 563.5952L624.1243 563.2202zM656.37 563.39L656.13 563.56L656.3 563.79L656.76 563.97L657.09 563.92L657.58 563.59L657.05 563.27L656.37 563.39zM620.76 564.21L620.19 564.54L620.06 565.01L620.51 564.92L620.86 564.6L620.91 564.31L620.87 564.21L620.76 564.21zM619.1039 565.1919L618.756 565.0326L618.1 565.1529L617.5201 565.4824L617.3561 565.8281L617.704 565.9874L618.36 565.8671L618.9399 565.5376L619.1039 565.1919zM640.13 565.14L640 565.2L639.86 565.5L640.04 565.78L640.73 566.05L641.37 566.06L641.78 565.91L642.08 565.6L641.75 565.31L640.6 565.08L640.13 565.14zM661 565.55L661.08 565.86L661.15 565.91L661.42 565.92L661.6 565.72L661.62 565.45L661.51 565.32L661.23 565.28L661.02 565.47L661 565.55zM613.36 567.54L613.4 567.62L613.5 567.66L613.64 567.64L613.78 567.53L613.84 567.38L613.68 567.32L613.38 567.42L613.36 567.54zM667.976 569.9476L668.2247 569.9755L668.5175 569.7718L668.683 569.4557L668.624 569.2124L668.3753 569.1845L668.0825 569.3882L667.917 569.7043L667.976 569.9476zM615.57 570.94L615.99 570.55L616.17 570.13L616.17 570.11L616.16 569.98L615.95 569.75L615.63 569.8L615.38 570.01L614.69 571.05L614.39 572.5L614.47 573.14L614.82 572.74L615.09 571.73L615.57 570.94zM667.54 570.96L667.18 571.36L667.32 571.77L667.82 571.59L668.01 571.3L667.98 571.09L667.79 570.9L667.54 570.96zM655.85 571.56L655.74 571.28L655.46 571.17L655.18 571.28L655.07 571.56L655.18 571.84L655.46 571.95L655.74 571.84L655.85 571.56zM607.94 572.18L608.07 571.83L608.09 571.69L607.92 571.44L607.61 571.45L606.25 572.39L604.19 574.51L604.14 574.67L604.23 574.81L604.47 575L604.54 575.02L604.59 574.99L605.63 573.86L606.75 573.02L607.17 572.9L607.57 573.08L608.49 573.72L608.89 573.63L608.79 573.21L608.05 572.57L607.92 572.4L607.94 572.18zM670.16 571.76L670.42 572.03L670.91 571.96L670.9 571.61L670.69 571.4L670.24 571.39L670.16 571.76zM610.38 572.33L610.3 572.71L610.56 572.99L610.7 573.02L611.57 572.81L611.76 572.69L611.85 572.6L611.91 572.22L611.64 571.94L611.01 571.9L610.38 572.33zM625.46 572.09L624.82 572.41L625.34 572.84L625.57 572.92L626.63 572.89L627.02 572.65L626.66 572.35L625.46 572.09zM640.29 572.52L638.03 572.12L635.45 572.35L634.98 572.53L635.46 572.7L639.46 573.04L643.6 572.74L644.01 572.57L643.65 572.32L642.63 572.05L641.71 572.13L641.11 572.42L640.69 572.57L640.29 572.52zM628.96 640.01L628.35 640.24L628.14 640.4L628.13 640.68L628.17 640.76L628.46 641.05L628.85 641.13L629.25 640.98L630.26 640.26L630.74 640.03L631.23 640L642.98 641.25L643.63 641.08L645.91 639.43L645.95 639.4L646.12 639.02L645.95 638.64L644.91 637.99L644.59 637.83L644.29 637.53L640.93 633.56L636.34 629.01L635.71 628.76L635.19 629.04L635.13 629.16L635.19 629.56L635.2 629.59L634.94 629.88L634.44 629.76L634.22 629.57L634.12 629.3L634.23 629.05L634.24 629.05L634.53 628.8L634.73 628.47L634.53 628.02L634.04 627.63L633.55 627.49L633.1 627.6L632.73 627.67L632.41 627.53L625.29 621.91L625.02 621.5L625.19 621.06L626.28 620.17L626.57 619.93L626.73 619.61L626.72 619.34L626.63 619.3L626.5 619.25L626.37 618.86L626.62 618.41L629.01 616.86L630.24 616.42L631.48 616.2L633.47 616.32L635.51 616.99L636.13 617.18L636.62 617.1L636.77 617L637 616.61L636.64 616.32L636.2 616.02L636.07 615.78L636.07 615.34L636.52 615.34L637.16 615.57L638.52 615.97L639.16 616.01L641.03 616.22L642.45 616.72L643.79 617.5L644.14 617.85L644.34 618.3L644.68 619.14L645.2 619.72L645.34 619.81L645.72 619.92L645.62 619.54L644.95 618.61L644.84 618.49L644.94 618.36L645.27 618.16L645.43 618.12L645.59 618.2L647 619.61L647.16 619.99L647.16 620.04L647.53 621.04L648.55 622.01L648.56 622.02L648.77 622.37L648.66 622.77L648.14 623.43L647.99 623.81L648.39 623.87L648.64 623.81L649.42 623.07L649.52 622.65L649.29 622.27L648.39 621.25L648.1 620.34L648.2 620.05L648.9 620.45L660.26 631.68L660.88 632.02L661.53 631.91L662.24 631.38L665.02 628.31L667.65 624.79L667.82 624.66L668.01 624.66L668.18 624.68L668.57 624.55L668.72 624.35L668.58 624.14L668.39 624.04L668.32 624.02L668.28 624.01L668.03 623.78L668.03 623.44L670.25 617.73L671.7 612.55L672.06 609.15L672.06 608.97L672.1 605.32L672 602.45L671.6 599.88L670.12 594.65L668.12 589.99L668.04 589.58L668.28 589.24L668.55 589.02L668.7 588.79L668.49 588.47L665.8 586.24L664.32 584.42L663.44 583L662.59 582.05L662.23 581.63L662.22 581.16L662.26 581.12L662.72 581.04L662.94 581.2L663.28 581.65L663.4 581.73L663.57 581.67L663.66 581.56L663.7 581.38L663.69 581.31L663.44 581.02L660.86 579.58L659.98 579.53L659.28 579.47L658.51 578.91L657.92 577.78L657.72 577.53L657.41 577.54L657.06 577.67L656.92 577.69L656.85 577.67L648.12 574.46L647.76 574.21L648.15 574.01L649.27 573.92L650.37 574.16L651.45 574.73L651.48 574.74L651.51 574.73L651.62 574.62L651.68 574.49L651.68 574.46L651.41 574.13L650.37 573.88L649.89 573.62L648.95 573.38L643.72 573.76L636.62 574.04L633.95 573.83L630.58 573.06L630.25 572.97L629.39 572.98L629.07 573.3L629.31 573.68L629.7 574.15L629.79 574.45L629.73 574.91L629.37 575.15L625.64 576.22L624.93 576.61L623.78 577.49L622.9 577.89L621.79 577.96L622.56 577.23L622.84 576.25L622.72 575.84L622.31 575.96L621.58 576.62L621.28 577.32L621.28 577.66L621.23 578.16L621 578.51L620.03 579.31L618.97 579.83L617.41 580.07L617.02 580.2L617.11 580.6L617.18 580.69L617.45 580.82L617.72 581.01L617.73 581.34L617.68 581.42L616.89 581.99L616.52 582.29L616.27 582.7L616.22 582.82L615.66 583.55L614.75 584.12L614.34 584.4L614.07 584.78L613.19 586.2L612.08 587.33L610.65 588.23L610.5 588.37L610.48 588.58L610.64 588.92L610.79 589.34L610.63 589.78L609.78 590.13L609.55 590.27L609.48 590.54L609.59 590.78L609.72 591.13L609.65 591.49L608.66 593.94L607.9 596.57L607.35 599.4L607.02 602.41L606.87 602.76L606.49 602.81L605.45 602.28L605.27 602.21L604.84 602.35L604.73 602.79L605.78 607.1L605.77 607.36L605.52 608.23L605.48 608.44L605.66 609.17L606.5 611.13L606.85 612.67L606.97 614.27L606.99 614.57L607.52 616.01L608.01 617.4L607.91 618.19L607.45 619.17L607.36 619.57L607.66 619.83L608.79 620.64L609.39 621.86L609.48 623.5L609.78 623.98L610.27 624.16L610.61 624.42L610.63 624.86L610.51 625.12L610.4 625.53L610.74 625.8L611.51 626.37L611.63 627.23L611.66 628.09L612.27 628.69L612.3 628.7L612.86 628.55L613.25 628.3L613.7 628.39L613.51 629.02L613.28 629.37L613.18 629.77L613.48 629.95L613.94 629.99L614.3 630.06L614.64 630.29L618.2 633.84L618.34 634.06L618.36 634.35L618.42 634.68L618.48 634.74L618.51 634.76L618.81 634.65L618.91 634.4L619.05 634.23L619.28 634.29L623.8 637.1L628.97 639.46L629.33 639.74L628.96 640.01zM664.94 573.37L664.92 573.59L665.32 574.05L665.41 574.09L665.72 574.03L665.87 573.74L665.86 573.63L665.54 573.18L665.48 573.14L665.16 573.13L664.94 573.37zM628.1225 574.1425L627.7501 573.8885L627.0027 573.9224L626.3181 574.2244L626.0975 574.6175L626.4699 574.8715L627.2173 574.8376L627.9019 574.5356L628.1225 574.1425zM668.26 574.19L668.09 574.37L668.25 574.88L668.27 574.91L668.52 575L668.76 574.88L668.86 574.68L668.79 574.36L668.76 574.31L668.26 574.19zM672.36 574.19L672.15 574.41L672.2 574.6L672.4 574.76L672.63 574.63L672.73 574.32L672.62 574.19L672.53 574.16L672.36 574.19zM675.13 575.8L675.78 576.37L676.4 576.67L676.64 576.45L676.6 576.37L675.64 575.32L674.67 574.29L674.59 574.25L674.35 574.47L674.61 575.11L675.13 575.8zM654.11 575.13L654.03 575.14L653.91 575.48L654.36 575.8L654.49 575.79L654.73 575.56L654.64 575.25L654.46 575.17L654.11 575.13zM616.26 576.17L615.93 576.7L615.97 576.82L616.06 576.93L616.47 577.06L616.82 576.8L616.88 576.26L616.8 576.16L616.26 576.17zM619.18 576.2L619.11 576.48L619.26 576.73L619.44 576.8L619.73 576.65L619.76 576.61L619.83 576.28L619.62 576L619.49 575.97L619.18 576.2zM619.6 578.16L619.06 578.51L619.06 578.62L619.21 578.81L619.45 578.82L619.5 578.8L619.9 578.37L619.81 578.18L619.6 578.16zM659.35 578.37L659.47 578.73L659.81 578.69L659.91 578.6L659.88 578.47L659.68 578.25L659.63 578.22L659.58 578.2L659.35 578.37zM602.2506 581.0396L602.7366 580.9608L603.3301 580.3661L603.6833 579.6038L603.5894 579.1204L603.1034 579.1992L602.5099 579.7939L602.1567 580.5562L602.2506 581.0396zM611.4 582.93L611.41 582.94L611.93 582.34L612.73 580.38L612.76 580.11L612.63 579.9L612.56 579.86L612.48 579.85L612.25 579.92L612.09 580.14L611.4 582.14L611.38 582.92L611.4 582.93zM673.04 580.32L673.02 580.64L673.23 580.88L673.24 580.88L673.51 580.92L673.89 580.61L673.83 580.12L673.45 579.93L673.04 580.32zM614.97 581.47L614.35 582.35L614.3 582.52L614.31 582.84L614.64 582.69L615.43 582L616.22 581.31L616.41 581.01L616.09 580.95L615.92 580.97L614.97 581.47zM602.92 583.1L603.08 583.7L603.64 584.11L603.91 583.42L603.49 582.81L603.17 582.73L602.93 582.95L602.92 583.1zM666.41 585.66L666.66 585.62L666.62 585.37L666.12 584.62L665.62 584.29L665.38 584.32L665.42 584.56L665.93 585.34L666.41 585.66zM668.4 584.86L668.77 584.83L668.89 584.56L668.7 584.16L668.31 584.1L668.06 584.37L668.4 584.86zM609.29 584.24L608.44 584.9L607.99 585.5L608.01 585.74L608.22 585.87L608.32 585.85L609.04 585.48L609.52 584.97L609.71 584.56L609.66 584.29L609.41 584.2L609.29 584.24zM612.77 585.17L612.95 584.75L612.56 584.97L611.13 586.5L611.09 586.66L611.38 586.79L611.79 586.64L612.77 585.17zM596.62 586.12L596.44 586.78L596.96 586.38L597.06 586.24L597.11 585.69L597 585.46L596.82 585.68L596.62 586.12zM681.89 586.16L682.14 586.77L682.23 586.84L682.71 586.96L682.68 586.48L682.25 585.98L682.18 585.94L681.89 586.16zM595.77 588.53L595.94 588.18L595.92 588.07L595.85 587.94L595.76 588.06L595.63 588.62L595.77 588.53zM669.31 590.27L669.34 590.66L669.54 590.79L669.64 590.64L669.55 590.24L669.33 590.21L669.31 590.27zM686.13 605.53L686.22 605.71L686.42 605.71L686.45 605.69L686.89 604.92L686.72 604.22L686.42 603.92L686.26 604.32L686.13 605.53zM673.3202 607.8494L673.6287 607.4659L673.7798 606.5225L673.685 605.5717L673.3998 605.1706L673.0913 605.5541L672.9402 606.4975L673.035 607.4483L673.3202 607.8494zM606.24 616.29L606.05 617.55L606.22 618L606.66 617.81L606.94 617.44L607.04 616.92L606.9 616.3L606.64 616.08L606.32 616.17L606.24 616.29zM630.28 617.26L630.09 617.68L630.09 617.75L630.23 617.92L630.46 617.92L630.78 617.63L630.85 617.5L630.85 617.26L630.66 617.11L630.54 617.09L630.28 617.26zM640.27 617.26L640.09 617.77L640.24 617.96L640.5 618.01L640.71 617.85L640.73 617.8L640.72 617.27L640.67 617.22L640.46 617.14L640.27 617.26zM671.38 617.53L671.21 618.44L671.42 618.83L671.74 618.43L671.81 618.16L671.63 617.52L671.5 617.41L671.38 617.53zM642.06 619.71L642.52 620.01L642.82 619.86L642.98 619.51L642.85 619.15L642.79 619.09L642.3 618.82L642.27 618.81L641.99 618.89L641.86 619.14L641.86 619.2L642.06 619.71zM629.41 619.13L629 619.55L629.07 619.81L629.11 619.86L629.41 619.98L629.7 619.83L629.85 619.38L629.83 619.3L629.67 619.1L629.41 619.13zM684.35 620.46L684.47 620.65L684.62 620.6L684.75 620.46L684.77 620.38L684.57 620.29L684.36 620.34L684.35 620.46zM627.78 622.21L627.02 621.49L626.43 621.35L626.42 621.35L626.19 621.52L626.31 621.79L628.17 623.53L629.57 624.34L630.62 624.6L631.04 624.53L630.86 624.17L630.09 623.5L628.62 622.82L627.78 622.21zM632.56 625.8L632.48 626L632.42 626.22L632.48 626.6L632.88 626.57L633.61 625.92L633.64 625.83L633.67 625.6L633.45 625.04L632.47 624.14L631.81 624.11L631.97 624.5L632.49 625.16L632.63 625.48L632.56 625.8zM651.63 625.64L651.03 626.5L650.94 627.01L651.46 626.96L652.61 626.05L652.75 625.64L652.51 625.3L651.98 624.67L651.84 624.22L651.79 624.12L651.69 624.1L651.39 624.13L651.31 624.16L651.26 624.42L651.47 624.77L651.88 625.17L651.9 625.19L651.63 625.64zM681.3354 627.9261L681.4872 627.3851L681.213 626.3433L680.6735 625.4108L680.1846 625.1339L680.0328 625.6749L680.307 626.7167L680.8465 627.6492L681.3354 627.9261zM682.33 625.5L682.31 625.52L682.39 625.81L682.61 625.85L682.76 625.79L682.85 625.66L682.81 625.5L682.64 625.35L682.33 625.5zM656.21 629.79L657.98 631.41L658.76 631.8L658.76 631.79L658.77 631.78L658.37 631.01L656.72 629.27L654.95 627.65L654.17 627.26L654.16 627.26L654.16 627.27L654.56 628.04L656.21 629.79zM650.38 628.17L650.16 628.81L650.26 628.96L650.3 628.99L650.55 629.03L650.74 628.87L650.8 628.17L650.78 628.15L650.39 628.16L650.38 628.17zM670.92 629.57L670.79 629.24L670.46 629.11L670.13 629.24L670 629.57L670.13 629.9L670.46 630.03L670.79 629.9L670.92 629.57zM680.43 629.09L680.2 629.54L680.31 629.63L680.32 629.63L680.64 629.58L680.88 629.32L680.84 629.14L680.82 629.11L680.43 629.09zM665.7403 631.9895L665.7701 631.5797L665.4073 630.9299L664.8646 630.4207L664.4597 630.3505L664.4299 630.7603L664.7927 631.4101L665.3354 631.9193L665.7403 631.9895zM609.14 631.42L609.09 631.56L609.21 631.84L609.45 631.99L609.73 631.89L609.99 631.57L609.61 631.04L609.14 631.42zM668.88 631.29L668.82 631.12L668.65 631.06L668.28 631.16L668.11 631.52L668.2 631.81L668.47 631.94L668.5 631.94L668.69 631.88L668.88 631.29zM614.24 631.43L614.49 631.72L614.71 631.49L614.73 631.43L614.61 631.21L614.5 631.15L614.39 631.17L614.22 631.34L614.24 631.43zM673.19 632.51L673.29 632.83L673.84 632.88L673.8 632.3L673.5 632.21L673.25 632.27L673.19 632.51zM660.42 632.99L660.08 633.43L660.3 633.98L660.77 633.66L660.92 633.29L660.89 633.15L660.71 632.92L660.42 632.99zM675.09 633.25L675.07 633.42L675.46 633.79L675.74 633.81L675.85 633.55L675.79 633.26L675.52 633.05L675.25 633.04L675.09 633.25zM616.3 633.54L616.3 633.62L616.32 633.63L616.54 633.61L616.62 633.53L616.61 633.42L616.58 633.4L616.3 633.54zM657.08 634.26L657.04 634.72L657.13 635.04L657.46 635.01L657.97 634.54L657.98 634.52L657.98 634.26L657.82 634.05L657.56 633.93L657.16 634.03L657.08 634.26zM673.12 635.3L673.11 635.36L673.38 635.95L673.63 636.07L673.83 635.89L673.9 635.66L673.68 635.16L673.27 635.11L673.12 635.3zM619.17 635.48L619.39 635.69L619.57 635.72L619.66 635.55L619.64 635.37L619.4 635.19L619.1 635.19L619.17 635.48zM656.88 636.03L656.87 636L656.64 635.9L656.13 636.44L656.24 637.12L656.91 636.79L656.88 636.03zM660.29 639.09L660.53 639.12L660.8 638.94L660.92 638.5L661.12 637.56L661.76 636.78L661.96 636.52L661.96 636.18L661.87 636.03L661.73 635.92L661.55 635.88L661.38 635.92L661.12 636.14L661.06 636.46L660.89 637.45L660.31 638.22L660.06 638.6L660.1 638.93L660.29 639.09zM604.23 637.3L604.24 637.59L604.38 637.85L604.46 637.91L604.72 637.91L604.87 637.69L604.85 637.44L604.71 637.17L604.64 637.11L604.39 637.1L604.23 637.3zM619.64 637.83L619.89 637.32L619.35 637.31L618.57 637.76L618.25 638.53L618.33 639.15L618.8 638.81L619.64 637.83zM622.68 637.51L622.41 637.24L622.14 637.51L622.41 637.78L622.68 637.51zM646.11 637.51L646.07 637.76L646.27 637.93L646.33 637.95L646.74 637.81L646.81 637.73L646.86 637.42L646.63 637.2L646.45 637.19L646.11 637.51zM647.07 640.18L646.94 640.76L647 640.87L647.29 641.04L647.6 640.9L647.87 640.37L647.54 640.04L647.07 640.18zM604.41 640.62L604.53 640.79L604.6 640.79L604.96 640.61L604.73 640.29L604.58 640.24L604.42 640.4L604.4 640.58L604.41 640.62zM646.1 641.28L646.24 641.07L646.04 640.91L645.67 640.84L645.09 640.94L644.5 641.28L644.29 641.58L644.63 641.74L644.93 641.75L646.1 641.28zM669.4208 643.1778L669.7318 642.8184L669.8191 641.9913L669.6316 641.181L669.2792 640.8622L668.9682 641.2216L668.8809 642.0487L669.0684 642.859L669.4208 643.1778zM611.93 641.32L611.85 641.59L611.86 642.13L612.11 642.72L612.46 642.95L612.85 642.8L612.93 642.69L613.04 642.31L612.97 641.79L612.65 641.23L612.32 641.07L611.98 641.23L611.93 641.32zM614.28 643.24L614.16 643.64L614.26 643.82L614.53 643.97L614.83 643.84L614.94 643.7L614.98 643.43L614.77 643.12L614.4 643.13L614.28 643.24zM646.22 645.13L645.88 645.47L646.27 645.99L646.66 646.09L646.9 645.79L646.93 645.48L646.67 645.16L646.22 645.13zM612.32 646.48L612.42 646.67L612.45 646.67L612.8 646.54L612.8 646.42L612.73 646.3L612.6 646.28L612.39 646.37L612.32 646.48zM683.87 647.58L683.75 647.29L683.46 647.17L683.17 647.29L683.05 647.58L683.17 647.87L683.46 647.99L683.75 647.87L683.87 647.58zM618.17 649.17L618.01 649.34L618.06 649.57L618.26 649.74L618.36 649.75L618.57 649.66L618.58 649.42L618.37 649.14L618.17 649.17zM660.51 650.13L661.44 650.76L661.78 650.73L661.77 650.39L661.68 650.19L661.26 649.72L660.59 649.39L660.31 649.45L660.1 649.81L660.34 650.01L660.44 650.07L660.51 650.13zM658.66 649.9L658.24 650.22L658.11 650.57L658.48 650.65L658.95 650.54L659.23 649.99L658.66 649.9zM656.32 650.68L656.4 650.77L656.74 650.79L656.92 650.62L656.89 650.37L656.83 650.31L656.45 650.2L656.32 650.34L656.28 650.55L656.32 650.68zM665.92 651.41L665.79 651.09L665.47 650.96L665.15 651.09L665.02 651.41L665.15 651.73L665.47 651.86L665.79 651.73L665.92 651.41zM653.39 651.39L653.11 651.77L653.53 651.81L653.86 651.63L653.87 651.62L653.89 651.44L653.72 651.35L653.39 651.39zM650.25 652.3L650.18 652.35L650.12 652.57L650.26 652.74L650.62 652.77L650.83 652.64L650.86 652.35L650.77 652.26L650.25 652.3zM627.61 652.32L627.27 652.43L627.42 652.76L627.8 652.99L628.5 652.79L628.8 652.44L628.35 652.32L627.61 652.32zM665.29 655.1L666.29 655.71L666.68 655.71L666.7 655.33L666.38 654.83L665.75 654.35L665.02 654.01L664.43 653.97L664.1 654.16L664.29 654.51L665.29 655.1zM687.07 655.61L687.1 655.76L687.49 655.8L687.76 655.64L687.69 655.42L687.58 655.33L687.25 655.33L687.07 655.61zM682.37 656.88L681.63 656.15L681.5 656.07L681.37 656.05L681.12 656.11L680.89 656.34L681.09 656.61L682.01 657.08L682.39 656.91L682.37 656.88zM686.57 657.71L686.69 657.38L686.35 657.41L685.35 658.1L685.15 658.64L685.83 658.63L686.57 657.71zM673.77 658.8L674 658.89L674.24 658.88L674.75 658.64L674.38 658.34L673.82 658.33L673.43 658.47L673.77 658.8z" stroke="none" fill="#000000" fill-rule="nonzero" />
    <path d="M486.25 574.6L485.4 574.73L484.76 574.54L484.4 574.14L484.18 573.52L483.91 569.61L484.1 562.93L484.25 562.55L484.63 562.45L488.15 562.51L492.98 562.36L501.35 562.1L522.99 561.89L544.25 561.13L548.66 561.5L549.06 561.68L549.23 562.08L549.6 567.12L549.48 572.07L549.51 572.72L549.58 573.04L549.78 574.48L549.63 574.85L549.26 574.97L527.72 574.97L526.52 575.14L525.66 575.66L525.14 576.52L524.97 577.72L524.97 652.34L524.83 652.77L524.41 652.91L510.7 652.91L510.03 652.81L509.54 652.53L509.25 652.04L509.15 651.37L509 596.65L509.21 586.84L509.22 581.5L508.98 577.02L508.72 576.12L508.04 574.78L507.72 574.48L507.28 574.49L505.62 574.78L503.49 574.68L501.58 574.58L490.48 575.18L489.04 575.44L487.95 575.38L487.11 574.83L486.71 574.58L486.25 574.6zM545.56 562.15L544.74 562.11L544.44 562.23L544.35 562.54L544.37 562.62L544.59 562.91L544.96 563L545.48 562.88L545.83 562.6L545.82 562.56L545.56 562.15zM547.48 562.39L547.43 562.55L547.45 562.57L547.56 562.57L547.64 562.5L547.64 562.41L547.5 562.37L547.48 562.39zM545.18 565.2L545.17 565.74L545.52 566.04L545.83 565.72L545.89 565.29L545.82 565.12L545.74 565.03L545.42 564.97L545.18 565.2zM485.29 566.38L485.28 566.6L485.35 566.73L485.58 566.88L485.83 566.73L485.92 566.53L485.89 566.31L485.58 565.91L485.29 566.38zM485.45 568.16L485.12 568.66L485.21 568.93L485.64 568.81L485.95 568.4L485.89 568.21L485.87 568.18L485.45 568.16zM525.67 569.06L525.48 568.96L525.29 569.06L525.03 569.87L525.19 570.5L525.73 571.08L526.14 570.35L526.08 569.82L525.67 569.06zM485.11 570.35L485.12 570.66L485.43 571.04L485.7 570.79L485.78 570.34L485.61 570.12L485.53 570.08L485.26 570.11L485.11 570.35zM487.18 570.2L487.08 570.35L487.2 570.67L487.63 570.7L487.65 570.67L487.76 570.32L487.72 570.25L487.71 570.24L487.45 570.11L487.18 570.2zM510.86 570.19L510.67 570.62L510.85 570.82L511.23 570.92L511.6 570.81L511.91 570.43L511.42 570.05L510.86 570.19zM485.17 572.55L485.5 573.03L485.58 573.09L485.85 573.09L486.01 572.87L485.96 572.5L485.71 572.2L485.2 572.02L485.17 572.55zM523.26 572.09L523.12 572.54L523.45 572.89L523.7 572.72L523.73 572.43L523.38 572.06L523.26 572.09zM526.07 573.3L526.03 573.4L526.1 573.7L526.39 573.82L526.42 573.81L526.74 573.54L526.78 573.24L526.61 572.99L526.49 572.95L526.07 573.3zM510.5557 576L510.851 575.6792L510.97 574.9078L510.8429 574.1377L510.5443 573.82L510.249 574.1408L510.13 574.9122L510.2571 575.6823L510.5557 576zM523.36 651.42L523.31 651.74L523.43 651.84L523.62 651.64L523.65 651.46L523.56 651.36L523.44 651.33L523.36 651.42z" stroke="none" fill="#000000" fill-rule="nonzero" />
    <path d="M803.49 596.72L803.85 596.52L804.15 596.43L804.81 596.56L807.17 597.29L809.26 597.46L822.91 597.16L836.81 597.56L837.59 597.86L837.85 598.65L837.85 609.4L837.73 609.74L837.36 609.7L836.71 609.47L836.12 609.49L835.76 609.63L835.35 609.79L834.74 609.83L830.65 609.52L826.39 609.47L818.24 609.51L812.16 609.44L806.48 609.6L805.96 609.46L805.8 608.93L805.77 608.68L805.62 608.41L805.28 608.28L804.99 608.51L804.97 608.69L804.96 609.75L804.59 610.44L803.75 610.79L803.47 610.92L803.39 611.18L803.39 633.34L803.51 633.78L803.89 634.07L804.39 634.26L804.58 634.41L804.64 634.62L804.64 637.78L804.72 638.34L804.96 638.74L805.36 638.98L805.92 639.06L839.37 639.06L839.99 639.36L840.13 640.02L840.07 640.19L839.95 640.49L839.88 641.17L840.05 641.93L840.29 642.22L840.72 641.96L841.17 640.39L841.3 640.19L841.54 640.19L841.79 640.31L841.94 640.46L841.99 641.76L841.58 642.63L840.6 643.07L840.17 643.27L840.02 643.73L840.02 649.93L840.13 650.21L840.41 650.32L840.7 650.23L840.84 649.99L841.24 647.63L841.49 646.94L841.84 647.59L842.06 649.03L841.76 650.19L840.78 651.16L840.37 651.51L840.14 651.91L839.83 652.4L839.16 652.81L838.2 652.95L790.6 652.97L789.83 652.66L789.5 651.9L789.05 620.67L789.02 588.51L789.2 587.19L789.36 585.92L789.37 579.47L789.85 570.76L789.81 569.35L789.44 568.1L789.28 567.78L788.21 565.51L787.93 563.46L788.02 563.06L788.39 562.89L789.43 562.79L797 562.39L839.6 561.54L839.97 561.71L840.08 562.1L840.05 562.2L839.95 562.49L839.97 563.73L840.21 564.1L840.59 563.86L840.76 563.61L840.92 563.03L840.86 562.34L840.9 562.03L841.21 562.04L841.73 562.23L841.88 562.34L841.93 562.51L841.93 572.63L841.75 573.51L841.25 574.26L840.51 574.77L839.62 574.95L807.5 574.83L807.01 574.69L806.69 574.23L806.59 573.45L806.54 573.29L806.37 573.21L806.36 573.21L806.21 573.23L806.12 573.4L805.64 575.03L804.79 576.66L804.47 576.92L804.21 576.6L803.78 575.41L803.59 575.18L803.35 575.34L803.15 576.26L803.27 583.15L803.5 584.33L804.03 584.77L804.08 584.8L804.4 585.11L804.42 585.55L804.12 587.25L804.02 589.04L804.43 592.84L804.45 593.31L804.29 593.77L802.93 596.24L802.88 596.4L802.98 596.65L803.21 596.8L803.49 596.72zM789.52 564.83L789.83 564.14L789.8 563.61L789.55 563.29L789.39 563.21L789 563.32L788.88 563.71L789.1 564.76L789.26 565.05L789.52 564.83zM840.25 564.96L839.89 565.44L839.92 565.62L840.28 566.06L840.74 565.62L840.56 565.02L840.41 564.91L840.25 564.96zM840.05 569.5L840.14 571.36L840.45 572.04L840.48 572.04L840.51 572.04L840.83 571.37L840.94 569.5L840.85 567.63L840.54 566.96L840.51 566.96L840.48 566.96L840.16 567.63L840.05 569.5zM807.37 571.17L807.17 571.33L807.23 571.58L807.46 571.78L807.6 571.73L807.73 571.56L807.74 571.46L807.63 571.17L807.37 571.17zM840.45 572.97L840.21 573.33L840.29 573.9L840.79 573.75L840.85 573.7L840.82 573.04L840.49 572.94L840.45 572.97zM805.39 597.92L805.25 597.96L805.03 598.28L805.16 598.64L806.06 599.05L806.31 599L806.65 598.73L806.52 598.31L806.27 598.08L805.39 597.92zM800.16 598.15L800.15 598.61L800.24 598.71L800.46 598.8L800.64 598.63L800.71 598.22L800.63 598.07L800.41 597.97L800.2 598.08L800.16 598.15zM836.44 608.42L836.38 608.76L836.52 609.01L836.79 608.81L836.83 608.72L836.76 608.39L836.47 608.37L836.44 608.42zM803.49 609.09L803.19 609.6L803.2 609.66L803.22 609.71L803.41 609.86L803.65 609.81L803.98 609.3L803.97 609.26L803.95 609.19L803.75 609.03L803.49 609.09zM800.38 636.6L800.53 636.67L800.64 636.39L800.63 636.34L800.6 636.32L800.41 636.3L800.35 636.36L800.32 636.48L800.38 636.6zM803.15 637.38L803.11 637.85L803.5 638.02L803.81 637.93L803.85 637.61L803.61 637.23L803.34 637.19L803.15 637.38z" stroke="none" fill="#000000" fill-rule="nonzero" />
    <path d="M222.51 614.52L222.07 614.36L221.01 613.86L220.6 613.48L217.35 609.23L215.39 606.01L215.19 605.82L214.91 605.83L214.75 605.86L214.65 605.85L214.47 605.77L214.35 605.62L214.28 605.18L214.52 604.87L214.69 604.63L214.46 604.44L213.79 604.05L212.96 603.29L209.6 599.65L209.46 599.27L209.6 598.86L209.92 598.23L209.97 597.63L209.62 596.9L208.77 596.23L208.49 596.18L208.36 596.43L208.52 596.83L209.1 597.29L209.23 597.45L209.14 597.64L208.92 597.86L208.78 597.93L208.64 597.86L206.26 595.48L206.03 595.02L206.48 594.76L206.85 594.62L206.94 594.56L207.18 594.26L206.82 594.11L205.08 593.93L204.63 593.78L204.29 593.44L202.84 591.41L201.55 590.19L200.85 589.84L200.36 589.87L200.06 590.26L199.96 591.03L199.96 652.53L199.86 652.84L199.53 652.95L186.16 652.95L185.45 652.66L185.15 651.96L185 616.21L185.03 567.9L185.2 565.61L185.35 564.39L185.26 563.45L185.25 563.22L185.65 562.53L186.44 562.43L187.51 562.69L188.81 562.77L192.02 562.37L193.99 562.1L194.71 562.34L194.77 562.5L195.04 563.99L195.16 564.2L195.6 564.04L195.95 563.04L196.14 562.61L196.52 562.32L196.53 562.32L197.1 562.23L197.77 562.39L198.14 562.67L198.26 563.13L198.07 564.23L197.58 564.92L196.75 565.18L196.15 565.27L195.91 565.45L196.04 565.77L196.59 566.19L197.19 566.12L198.3 565.59L199.63 565.03L199.79 565.01L200.26 565.1L200.56 565.46L201.58 566.79L203.34 567.93L203.65 568.26L203.66 568.7L203.31 569.08L203.11 569.36L203.2 569.71L204.09 570.72L204.56 570.84L204.99 570.62L205.27 570.41L205.39 570.37L205.64 570.47L205.67 570.74L205.24 572.11L205.36 572.68L205.67 572.36L205.82 572.11L205.96 571.99L206.15 572.03L207.24 572.88L207.62 573.74L207.46 574.33L207.38 574.8L207.7 575.15L210.72 577.45L211.42 578.25L211.59 578.98L211.49 579.31L211.47 579.68L211.75 579.93L211.83 579.95L212.97 580.07L213.38 580.31L219.57 588.24L219.87 588.73L220.01 589.15L220.29 590.36L220.48 590.66L220.78 590.57L221.09 590.35L221.36 590.27L221.66 590.51L223.71 593.62L225.6 596.02L229.64 600.77L231.78 603.62L231.87 604.05L231.58 604.37L231.06 604.95L231.07 605.27L231.02 605.75L230.58 605.93L230.46 605.93L230.06 605.76L229.69 605.35L229.57 605.24L229.4 605.24L229.18 605.37L229.17 605.38L229.12 605.5L229.15 605.64L229.4 606.02L230.21 606.77L230.63 606.86L231 606.64L232 605.37L232.46 605.12L232.94 605.29L232.98 605.33L236.52 609.41L239.79 613.57L239.84 613.73L239.77 613.86L239.57 614.07L239.48 614.12L239.33 614.07L237.78 612.52L237.51 612.39L237.26 612.55L236.9 612.81L236.31 612.74L235.57 612.21L235.23 612.15L235.04 612.44L235.13 612.66L236.13 613.66L236.53 613.86L236.93 613.61L237.18 613.29L237.42 613.14L237.67 613.23L243.52 617.89L243.58 617.99L243.8 618.69L243.75 619.02L243.48 619L243.24 618.82L242.04 617.58L241.06 617.14L241.55 618.16L243.09 619.6L243.4 619.78L243.93 619.91L245.48 620.34L245.86 620.63L246.14 621.08L246.8 622.36L247.65 623.4L247.69 623.45L247.75 623.76L247.55 624.01L247.26 624.15L247 624.41L247.26 624.68L248.85 625.24L250.26 625.21L250.84 624.88L251.03 624.24L250.99 573.42L251.16 569.09L251.37 564.76L251.47 564.12L251.66 563.88L253.08 562.89L254.53 562.51L254.68 562.51L256.37 562.51L259.24 562.46L262.46 562.83L263.43 562.76L264.71 562.54L265.05 562.78L265.11 563.18L265.1 563.21L265.02 564.7L265.24 565.1L265.65 564.92L265.69 564.88L266 564.32L266.07 563.54L266.16 563.25L266.44 563.18L266.74 563.22L266.86 563.27L266.9 563.39L266.83 564.45L266.55 565.41L265.71 566.66L265.45 567.03L265.34 567.5L265.15 578L264.99 595.49L265.08 612.97L265.62 641.1L264.96 651.49L265.05 651.75L265.31 651.84L265.37 651.83L265.72 651.64L265.94 651.23L265.98 650.63L266.04 650.41L266.27 650.35L266.63 650.39L266.73 650.43L266.76 650.54L266.54 651.61L266.04 652.36L265.36 652.76L264.46 652.93L259.19 653.04L253.71 652.88L253.09 652.69L252.66 652.24L252.64 651.83L252.59 651.37L252.43 651.3L252.03 651.56L251.77 651.69L251.49 651.61L249.36 649.8L248.61 648.77L248.06 647.67L247.65 645.92L247.43 645.44L247.1 645.46L246.51 645.71L246.12 645.74L246.1 645.15L246.54 644.69L246.71 644.34L246.56 644L246.13 643.68L245.18 643.68L244.77 643.7L244.4 643.47L242.8 641.32L241.86 638.99L241.59 637.45L241.37 636.79L240.62 636.23L240.54 636.22L240.2 636.29L240.36 636.6L240.97 637.25L241.06 637.46L240.74 637.76L240.45 637.79L240.13 637.62L236.99 633.75L234.12 630.58L232.14 628.19L230.22 625.42L230.1 625.03L230.51 624.98L230.87 625.13L231.13 625.48L231.39 625.78L231.62 625.46L231.63 625.02L231.12 624.65L231.1 624.64L228.97 623.78L228.04 622.81L222.53 615.76L222.21 615.22L222.32 614.99L222.51 614.86L222.63 614.7L222.53 614.53L222.51 614.52zM192.01 563.58L192.03 563.85L192.23 563.99L192.54 563.96L192.74 563.71L192.74 563.7L192.71 563.37L192.28 563.32L192.01 563.58zM255.22 564.45L255.26 564.68L255.35 564.75L255.56 564.76L255.69 564.62L255.75 564.33L255.74 564.32L255.41 564.11L255.22 564.45zM202.33 568.61L202.47 569.07L202.56 569.13L202.94 569.11L203.09 568.78L202.95 568.59L202.67 568.42L202.34 568.55L202.33 568.61zM204.93 573.08L204.65 572.96L204.15 572.61L203.81 572.36L203.02 572.16L203.19 572.92L204.42 573.85L204.69 573.91L204.93 573.78L205.11 573.49L205.13 573.23L204.93 573.08zM205.98 573L205.81 572.98L205.8 573.15L206.13 573.87L206.6 574.25L206.66 574.27L206.94 574.26L206.98 573.99L206.96 573.91L206.62 573.4L205.98 573zM213.6 582.16L213.13 582.02L213.21 582.51L213.69 583.3L214.29 583.78L214.69 583.85L214.67 583.45L214.33 582.82L213.6 582.16zM209.94 583.58L209.81 583.25L209.48 583.12L209.15 583.25L209.02 583.58L209.15 583.91L209.48 584.04L209.81 583.91L209.94 583.58zM201.45 588.99L203.51 591.02L203.7 591.01L203.88 590.78L203.94 590.62L203.86 590.48L202.23 588.5L201.07 586.35L200.93 586.15L200.75 586.06L200.49 585.96L200.27 585.94L200.23 586.15L200.69 587.85L201.45 588.99zM202.93 586.61L202.9 587.06L203.18 587.64L203.49 587.82L203.82 587.67L203.88 587.56L203.96 586.7L203.72 586.21L203.46 586.04L202.93 586.61zM218.6865 588.8014L218.5167 588.2028L217.6869 587.1573L216.6832 586.2774L216.0935 586.0786L216.2633 586.6772L217.0931 587.7227L218.0968 588.6026L218.6865 588.8014zM218.98 591.44L218.86 591.14L218.56 591.02L218.26 591.14L218.14 591.44L218.26 591.74L218.56 591.86L218.86 591.74L218.98 591.44zM211.35 593.88L211.43 593.91L211.66 593.83L211.72 593.6L211.22 592.6L210.43 592.11L210.33 592.09L210.06 592.23L210.02 592.53L210.49 593.25L211.35 593.88zM213.06 592.2L212.99 592.51L213.16 592.78L213.63 592.7L213.94 592.42L213.69 592.09L213.31 591.99L213.06 592.2zM209.07 594.37L209.03 594.41L208.99 594.64L209.14 594.82L209.29 594.86L209.93 594.6L210.03 594.37L209.92 594.14L209.89 594.12L209.77 594.07L209.07 594.37zM213.24 595.14L213.11 595.72L213.31 596.11L213.78 595.85L213.88 595.68L213.79 595.14L213.56 594.98L213.3 595.06L213.24 595.14zM212.01 596.42L211.88 596.11L211.57 595.98L211.26 596.11L211.13 596.42L211.26 596.73L211.57 596.86L211.88 596.73L212.01 596.42zM211.23 599.19L211.21 599.22L211.2 599.59L211.47 599.86L211.58 599.89L212.1 599.6L212.67 598.66L212.77 598L212.1 598.03L211.23 599.19zM226.15 598.53L226.33 598.72L226.47 598.72L226.63 598.62L226.61 598.43L226.53 598.31L226.39 598.24L226.32 598.23L226.15 598.53zM230.08 602.51L229.76 602.15L229.4 602.13L229.37 602.48L229.7 603.25L230.44 603.98L230.54 604.02L230.77 603.94L230.84 603.7L230.82 603.63L230.75 603.47L230.08 602.51zM225.4182 605.0791L225.7664 604.9314L225.9293 604.5368L225.8114 604.1265L225.4818 603.9409L225.1336 604.0886L224.9707 604.4832L225.0886 604.8935L225.4182 605.0791zM233.69 608.35L233.93 608.62L234.21 608.75L234.6 608.72L234.58 608.32L233.97 607.45L233.73 607.3L233.1 607.14L233.19 607.71L233.53 608.1L233.69 608.35zM218.41 609.55L218.46 609.64L218.56 609.76L218.6 609.75L218.64 609.73L218.85 609.73L218.9 609.69L218.9 609.67L218.56 609.37L218.52 609.37L218.39 609.52L218.41 609.55zM220.83 610.33L221.74 611.25L222.69 611.9L222.79 611.92L222.97 611.82L222.97 611.61L222.13 610.56L220.68 609.39L220.26 609.28L219.95 609.57L219.53 609.86L219.22 610.1L219.56 610.56L219.61 610.58L219.92 610.36L220.37 610.06L220.83 610.33zM235.24 615.21L235.03 615.55L235.12 615.89L235.33 616.02L235.56 615.96L235.59 615.93L235.78 615.52L235.73 615.31L235.52 615.11L235.24 615.21zM225.36 617.56L225.44 617.65L225.66 617.74L225.89 617.49L225.86 617.43L225.53 617.13L225.29 617.19L225.36 617.56zM228.8059 618.8362L228.7645 618.4006L228.2694 617.7537L227.6106 617.2746L227.1741 617.2438L227.2155 617.6794L227.7106 618.3263L228.3694 618.8054L228.8059 618.8362zM241.48 624.08L241.777 623.9101L241.9 623.5L241.777 623.0899L241.48 622.92L241.183 623.0899L241.06 623.5L241.183 623.9101L241.48 624.08zM246.2 623.71L246.34 623.96L246.39 623.99L246.94 624.06L246.82 623.55L246.55 623.31L246.47 623.31L246.23 623.44L246.2 623.71zM235.1 627.23L235.05 627.57L235.4 627.88L235.75 627.78L235.86 627.5L235.63 627.12L235.36 627.04L235.12 627.19L235.1 627.23zM233.93 628.13L233.82 627.57L233.33 627.16L233.03 627.72L233.32 628.22L234.1 629.29L236.37 631.63L236.58 631.71L236.72 631.54L236.81 631.29L236.81 631.24L236.78 631.19L234.29 628.96L234.02 628.53L233.93 628.13zM248.504 630.08L248.814 629.9079L248.94 629.4969L248.8083 629.0877L248.496 628.92L248.186 629.0921L248.06 629.5031L248.1917 629.9123L248.504 630.08zM245.98 633.34L245.95 633.61L246.3 634.01L246.63 634.04L246.87 633.81L246.89 633.76L246.89 633.39L246.69 633.14L246.31 633.06L246.01 633.29L245.98 633.34zM242.77 636.25L244.28 637.64L244.97 637.96L244.98 637.95L244.98 637.94L244.66 637.26L243.26 635.76L241.75 634.37L241.06 634.05L241.06 634.06L241.05 634.07L241.38 634.75L242.77 636.25zM248.03 638.42L247.89 638.07L247.54 637.93L247.19 638.07L247.05 638.42L247.19 638.77L247.54 638.91L247.89 638.77L248.03 638.42zM243.91 639.52L243.56 639.24L243.5 639.25L243.22 639.58L243.08 640.34L243.25 640.73L243.66 640.81L243.81 640.74L243.91 639.52zM246.2569 642.1071L246.6892 641.8677L246.999 641.1375L247.0047 640.3443L246.7031 639.9529L246.2708 640.1923L245.961 640.9225L245.9553 641.7157L246.2569 642.1071zM187.37 648.21L187.25 648.36L187.29 648.56L187.47 648.7L187.51 648.7L187.64 648.65L187.7 648.52L187.65 648.14L187.37 648.21zM250.56 649.23L250.01 648.74L249.46 648.38L249.67 648.96L250.4 649.49L250.61 649.31L250.56 649.23z" stroke="none" fill="#000000" fill-rule="nonzero" />
    <path d="M293.77 612.55L294.88 610.11L294.93 609.69L294.59 609.38L293.96 608.82L294.01 608.27L298.6 597.08L299.43 595.11L300.08 594.66L300.23 594.7L300.56 594.85L300.76 594.87L300.86 594.66L300.81 594.35L300.42 594.06L300.03 593.76L300.06 593.28L306.65 577.03L306.86 576.65L307.26 576.26L308.45 575.71L308.64 575.59L308.32 574.99L308.05 574.6L307.94 573.87L308.19 572.98L312.27 562.51L312.6 562.11L312.75 562.08L313.13 562.19L313.22 562.58L313.11 563.62L313.12 563.7L313.2 563.76L313.6 563.91L313.76 563.91L313.83 563.77L313.93 562.76L314.12 562.35L314.55 562.25L319.93 562.43L325.12 562.1L325.53 562.19L325.67 562.59L325.66 562.74L325.47 563.11L325.22 563.67L325.5 563.8L325.94 563.84L326.31 563.97L326.58 564.27L327.52 566.17L328.06 567.68L328.05 567.78L327.98 567.83L327.7 567.93L327.44 567.93L327.29 567.73L326.61 566.4L326.05 566.09L325.84 566.69L325.91 567.24L326.19 567.8L326.69 568.29L328.34 569.08L328.7 569.41L331.87 577.03L331.91 577.45L331.7 577.82L331.4 578.02L331.22 578.2L331.68 578.68L332.69 579.54L333.31 580.73L333.77 582.2L340.03 597.84L340.89 599.48L341.56 600.68L341.9 601.71L341.99 602.59L341.92 602.83L341.73 602.97L341.63 602.99L341.46 602.97L341.37 602.91L341.33 602.83L340.88 601.75L340.28 600.93L339.93 600.75L339.79 601.12L339.87 602.11L340.23 602.91L340.81 603.49L341.63 603.91L342.01 604.11L342.37 604.48L343.37 606.48L343.52 607.42L343.46 608.3L343.07 609.32L342.99 609.65L343.19 609.94L343.58 610.06L343.62 610.05L343.74 609.96L343.84 609.81L344.01 609.33L344.22 609.08L344.53 609.13L344.75 609.34L344.8 609.56L344.66 609.73L344.13 610.2L343.87 610.74L344.04 611.74L344.33 612.02L344.7 611.85L345.04 611.51L345.24 611.4L345.63 611.54L345.69 611.94L345.26 613L345.23 613.53L345.67 613.85L346.25 614.13L346.56 614.52L346.48 615.39L346.45 615.86L346.84 616.12L347.68 616.66L347.85 617.17L347.42 618.29L347.14 618.86L347.08 619.4L347.37 620.08L348.07 620.72L348.62 620.91L348.57 620.33L348.28 619.53L348.25 619.12L348.67 619.19L348.77 619.25L349.42 620.13L351.83 626.02L351.93 626.35L351.95 626.85L351.75 627.5L351.3 628.13L351.13 628.49L351.46 628.73L352.8 629.29L353.39 629.87L355.78 635.77L355.88 636.28L355.72 636.75L354.91 638.02L354.83 638.24L354.86 638.41L354.92 638.55L355.09 638.72L355.18 638.77L355.37 638.72L356.01 638.3L356.55 638.17L356.92 638.61L357.8 641L357.87 641.43L357.75 641.86L357.63 642.06L357.41 642.26L357.15 642.61L357.55 642.8L358.09 642.78L358.61 642.97L358.77 643.5L358.7 643.68L358.15 644.89L358.17 645.6L358.51 645.87L358.84 645.6L359.04 645.27L359.31 645.03L359.54 645.32L360.73 648.55L360.74 648.93L360.53 649.25L360.01 649.78L359.89 650.24L360.05 650.53L360.4 650.72L360.76 650.64L360.8 650.62L361.04 650.41L361.44 650.17L361.72 650.53L361.9 651.9L361.88 652.03L361.68 652.44L361.29 652.6L354.68 652.97L346.89 652.86L346.28 652.65L345.88 652.14L342.41 643.72L342.07 642.3L342.55 640.71L342.59 640.28L342.26 640L340.96 639.53L340.76 639.41L340.56 639.13L339.56 636.39L339.24 635.81L338.76 635.35L338.17 635.06L337.51 634.96L300.31 634.96L299.08 635.35L298.29 636.37L292.48 652.18L292.15 652.61L291.65 652.8L284.64 652.99L277.97 652.63L277.54 652.49L277.18 652.14L276.9 651.06L277.48 650.11L277.77 650L277.96 650.23L278.06 650.49L278.14 650.62L278.3 650.7L278.56 650.69L279.05 650.23L279.09 649.79L278.81 649.45L278.2 648.85L278.1 648.25L278.3 647.52L282.98 636.02L283.38 635.25L283.94 634.71L284.21 634.56L284.69 634.2L284.61 634.14L284.32 634.04L284.09 633.85L284.07 633.55L284.07 633.54L291.13 615.88L292.76 611.26L293.48 610.02L293.8 609.8L293.94 610.17L293.88 611.2L293.56 612.35L293.7 612.61L293.77 612.55zM315.0108 565.9966L315.025 565.6466L314.6966 565.1169L314.2178 564.718L313.8692 564.6834L313.855 565.0334L314.1834 565.5631L314.6622 565.962L315.0108 565.9966zM324.86 565.54L324.75 565.26L324.47 565.15L324.19 565.26L324.08 565.54L324.19 565.82L324.47 565.93L324.75 565.82L324.86 565.54zM311.2336 568.1634L311.6689 568.0124L312.2629 567.3386L312.6679 566.5368L312.6464 566.0766L312.2111 566.2276L311.6171 566.9014L311.2121 567.7032L311.2336 568.1634zM322.17 566.18L322.04 566.3L322.04 566.85L322.05 566.89L322.27 567.08L322.56 567.04L322.66 566.97L323.01 566.45L323.01 566.11L322.67 566.01L322.17 566.18zM315.4 566.85L315.17 566.68L315.1 566.96L315.33 567.82L315.69 567.94L315.94 567.69L315.88 567.45L315.4 566.85zM310.13 571.25L310.71 570.56L310.72 570.5L310.69 569.97L310.31 570.28L310.17 570.51L310.14 571.28L310.13 571.28L310.13 571.27L310.13 571.25zM327.98 571.25L327.99 571.6L328.46 571.83L328.65 571.73L328.68 571.7L328.75 571.45L328.61 571.24L328.13 571.14L327.98 571.25zM309.61 571.93L309.4 572.37L309.46 572.81L309.81 572.67L310.07 572.27L310 571.96L309.82 571.79L309.61 571.93zM330.03 576.66L330.05 576.83L330.47 576.88L330.86 576.67L330.81 576.49L330.69 576.37L330.29 576.34L330.03 576.66zM307.5395 578.9999L307.7405 578.8576L307.8299 578.5059L307.7554 578.1507L307.5605 578.0001L307.3595 578.1424L307.2701 578.4941L307.3446 578.8493L307.5395 578.9999zM314.11 578.24L314.16 578.91L314.5 579.06L314.52 579.06L314.75 578.96L314.84 578.72L314.56 578.02L314.55 578.02L314.27 578.01L314.11 578.24zM307.36 582.75L307.77 583.45L308.28 583.88L308.89 584.03L308.7 583.44L308.17 582.39L307.73 581.29L307.41 580.76L307.13 581.31L307.11 581.97L307.36 582.75zM313.16 581.13L313.07 581.49L313.19 581.75L313.43 581.88L313.69 581.8L313.7 581.8L313.93 581.44L313.92 581.27L313.85 581.11L313.5 580.93L313.16 581.13zM319.1 581.37L319.09 581.42L319.35 581.76L319.58 581.83L319.81 581.7L319.95 581.37L319.92 581.3L319.38 580.9L319.1 581.37zM305.86 582.3L305.73 582.11L305.53 582.21L305.14 582.7L305.04 583.08L305.37 583.81L305.93 583.15L305.86 582.3zM313.96 594.03L313.7 593.96L313.34 594.15L313.4 594.53L313.87 595.62L313.89 596.49L313.58 596.89L313.31 596.99L313.16 596.89L312.92 596.59L312.44 596.3L312.09 596.73L311.99 597.02L311.96 597.35L312.16 597.61L312.75 598.21L312.97 598.84L312.82 599.5L312.28 600.19L311.88 601.05L311.88 601.47L311.8 602.29L311.71 602.5L309 609.11L308.53 609.85L307.68 610.08L307.29 610.28L307.38 610.7L307.75 611.53L307.88 612.36L307.74 612.67L307.41 612.76L307.34 612.74L306.74 612.52L306.49 612.49L306.09 612.81L306.16 613.31L306.83 614.49L306.88 615.51L306.87 615.55L306.84 615.63L306.57 615.82L306.25 615.74L305.63 615.39L305.15 615.44L305.16 615.92L305.68 617.34L305.75 617.73L305.66 618.18L305.26 619.52L305.16 620.75L305.36 621.15L305.78 621.28L307.24 621.37L308.8 622.02L309.2 622.2L309.72 622.27L318.91 622.26L327.87 622.9L328.94 622.69L329.73 621.89L330.26 621.35L330.69 621.15L331.18 621.22L331.58 621.51L331.82 622.07L331.97 622.46L332.3 622.73L334.15 623.58L335.16 623.83L334.7 623.01L333.64 622.32L332.96 621.86L332.77 621.49L333.07 621.22L333.85 621.05L334.77 620.72L335 620.31L334.9 619.77L333.69 617.45L333.52 617.29L333.31 617.42L333.11 617.7L332.83 617.92L332.49 617.83L332.07 617.35L332.17 616.42L332.53 615.23L332.36 614.34L331.78 613.79L331.42 613.5L331.17 613.09L329.71 609.64L328.3 607.76L327.86 606.75L328.02 605.84L328.66 604.88L328.81 604.53L328.51 604.28L327.62 603.95L327.15 603.72L326.66 603.3L326.14 602.21L326.29 601.33L326.9 600.41L326.95 600.35L327.05 599.48L326.84 599.13L326.49 599.22L325.82 599.67L325.36 599.72L325.03 599.49L324.91 599.13L325.17 598.42L325.4 598.11L325.97 597.3L326.09 596.82L325.95 596.41L325.93 596.39L325.63 596.35L325.11 596.56L324.66 596.68L324.25 596.53L324.05 596.13L323.68 594.58L323.23 593.77L322.43 592.8L322.1 591.78L322.18 590.85L322.62 589.87L322.71 589.47L322.39 589.21L321.56 588.91L321.28 588.68L321.35 588.31L321.98 586.89L321.87 586.42L321.61 586.31L321.06 586.58L320.71 586.7L320.29 586.56L320.1 586.28L320.06 585.9L320.21 585.53L320.63 584.67L320.5 584.23L320.11 584.06L318.71 583.8L317.65 583.37L317.22 583.28L317.1 583.71L317.26 584.5L317.65 585.31L317.8 585.75L317.74 586.21L316.95 588.09L316.16 589.24L315.91 589.62L315.88 590.09L315.94 591.53L315.56 592.73L315.05 593.42L314.33 594L314.18 594.06L313.96 594.03zM324.17 586.43L324.14 586.55L324.24 586.77L324.48 586.91L324.72 586.79L324.89 586.5L324.54 586.03L324.17 586.43zM334.99 588.11L334.94 586.94L334.68 586.21L334.36 586.06L334.05 586.22L334 586.33L333.87 587.11L334.04 587.71L334.8 588.24L334.95 588.24L334.99 588.11zM315.77 588.19L315.74 588.13L315.42 588.12L315.12 589.01L315.2 589.35L315.38 589.5L315.67 589.55L315.84 589.29L315.77 588.19zM335.03 588.95L334.85 589.66L335.13 590.11L335.51 589.71L335.61 589.16L335.5 588.9L335.24 588.7L335.03 588.95zM334.55 590.8L334.13 591.55L334.09 591.75L334.16 591.88L334.39 592.05L334.53 592.05L334.86 591.7L334.98 590.91L334.82 590.53L334.55 590.8zM314.1784 592.9518L314.5864 592.7323L314.8969 592.0427L314.928 591.2872L314.6616 590.9082L314.2536 591.1277L313.9431 591.8173L313.912 592.5728L314.1784 592.9518zM337.22 594.58L337.35 594.87L337.77 594.92L337.75 594.49L337.7 594.39L337.5 594.31L337.22 594.55L337.22 594.58zM301.05 596.08L301.08 596.62L301.66 597.07L301.95 596.44L301.46 595.87L301.4 595.84L301.17 595.88L301.05 596.08zM338.51 596.96L338.63 596.98L338.68 596.87L338.45 596.24L338.07 595.9L338.01 596.38L338.02 596.42L338.51 596.96zM311.19 599.44L311.17 599.53L311.38 599.79L311.59 599.85L311.76 599.76L311.89 599.49L311.88 599.47L311.53 599.06L311.19 599.44zM310.049 603.2025L310.346 603.0964L310.6512 602.6527L310.7858 602.1313L310.671 601.8375L310.374 601.9436L310.0688 602.3873L309.9342 602.9087L310.049 603.2025zM302.01 603.82L302.29 604.15L302.65 603.9L302.84 603.55L302.94 602.99L302.82 602.35L302.52 601.97L302.07 602.13L301.96 602.24L301.78 602.87L302.01 603.82zM330.09 602.45L330.08 602.51L330.25 602.92L330.56 603.05L330.85 602.88L330.89 602.77L330.87 602.25L330.41 601.86L330.09 602.45zM297.4031 603.913L297.7637 603.7389L298.0108 603.1905L297.9997 602.5891L297.7369 602.287L297.3763 602.4611L297.1292 603.0095L297.1403 603.6109L297.4031 603.913zM309.47 604.04L309.31 604.36L309.42 604.87L309.82 604.62L309.9 604.16L309.76 603.83L309.47 604.04zM329.5674 608.0086L329.9292 607.5215L330.0395 606.3774L329.8338 605.2466L329.4326 604.7914L329.0708 605.2785L328.9605 606.4226L329.1662 607.5534L329.5674 608.0086zM295.46 607.29L295.46 607.54L295.66 607.67L295.76 607.66L295.91 607.56L295.89 607.29L295.69 607.06L295.46 607.29zM297.13 607.12L296.98 607.45L297.22 607.91L297.27 607.95L297.59 608.01L297.85 607.81L297.9 607.66L297.82 607.21L297.78 607.15L297.46 606.98L297.13 607.12zM307.66 608.71L308.82 607.5L308.89 607.17L308.56 607.17L307.58 607.83L307.32 608.51L307.37 608.83L307.66 608.71zM291.22 618.39L291.19 618.53L291.32 618.75L291.56 618.85L291.78 618.72L291.83 618.63L291.83 618.45L291.53 618.01L291.22 618.39zM345.13 621.21L344.94 621.46L344.98 621.76L344.99 621.77L345.21 621.99L345.42 622.08L345.75 622.05L345.97 621.81L346 621.33L345.84 621.19L345.52 621.1L345.13 621.21zM289.37 622.42L289.14 623.04L289.13 623.59L289.31 623.82L289.6 623.83L289.66 623.8L290 623.4L290.05 622.96L289.87 622.43L289.82 622.36L289.58 622.28L289.37 622.42zM306.26 622.49L306.35 622.64L306.48 622.67L306.63 622.62L306.68 622.46L306.65 622.38L306.41 622.29L306.27 622.33L306.26 622.49zM352.08 631.46L352.14 631.91L352.16 631.92L352.77 632.06L352.81 632.03L352.91 631.8L352.8 631.57L352.77 631.55L352.15 631.4L352.08 631.46zM297.09 632.27L297.24 632.78L297.41 632.89L297.7 632.86L297.87 632.62L297.87 632.55L297.63 631.99L297.6 631.97L297.3 631.97L297.1 632.2L297.09 632.27zM340.11 632.54L340.19 632.87L340.23 632.89L340.56 632.88L340.79 632.68L340.86 632.44L340.67 632.26L340.57 632.23L340.11 632.54zM338.37 633.12L338.27 633.34L338.37 633.64L338.44 633.71L338.71 633.74L338.88 633.54L338.84 633.19L338.64 633.05L338.37 633.12zM342.04 635.15L341.91 635.88L341.99 635.95L342.45 636.02L342.8 635.71L342.83 635.24L342.57 634.98L342.27 634.96L342.04 635.15zM341.6 637.19L341.08 638.06L341.21 638.7L341.4 638.94L341.67 638.77L342.01 638.19L341.93 637.26L341.81 637.07L341.6 637.19zM284.26 639.11L284.27 639.76L284.41 639.93L284.78 639.86L284.8 639.8L284.71 639.17L284.55 639.01L284.53 639L284.26 639.11zM281.072 644.0675L281.4179 643.9211L281.7708 643.364L281.9241 642.7225L281.788 642.3725L281.4421 642.5189L281.0892 643.076L280.9359 643.7175L281.072 644.0675zM343.39 643.46L343.46 643.74L343.48 643.75L343.62 643.76L343.66 643.56L343.58 643.39L343.45 643.33L343.39 643.46zM280.5 645.1L280.3 645.59L280.39 645.74L280.63 645.82L280.84 645.69L280.86 645.67L280.98 645.16L280.75 645.02L280.5 645.1zM293.37 645.56L293.46 645.63L293.74 645.49L293.77 645.36L293.55 645.35L293.4 645.44L293.37 645.56zM344.4 645.59L344.49 645.68L344.59 645.6L344.63 645.41L344.5 645.3L344.34 645.3L344.4 645.59zM279.36 647.2L279.26 647.45L279.64 647.61L279.91 647.5L280 647.25L279.94 647.16L279.93 647.15L279.64 647.05L279.36 647.2zM280.96 647.27L281.17 647.7L281.72 647.73L281.75 647.39L281.5 647.12L281.06 647.12L280.96 647.27zM356.24 647.27L356.12 647.72L356.19 647.84L356.49 648.02L356.8 647.9L356.98 647.65L356.98 647.41L356.73 647.12L356.35 647.16L356.24 647.27zM292.29 649.38L292.23 649.78L292.55 649.85L292.72 649.79L292.84 649.63L292.85 649.46L292.66 649.27L292.52 649.24L292.29 649.38zM291.47 651.18L291.37 651.48L291.44 651.64L291.64 651.46L291.69 651.27L291.63 651.17L291.48 651.17L291.47 651.18zM347.35 651.21L347.19 651.51L347.45 651.66L347.74 651.41L347.73 651.35L347.57 651.1L347.35 651.21z" stroke="none" fill="#000000" fill-rule="nonzero" />
    <path d="M562.29 649.15L562.75 649.15L562.98 649.07L563.06 648.84L563.06 562.91L563.18 562.54L563.56 562.43L569.03 562.43L575.71 562L576.56 562.21L576.84 563.03L576.84 652.58L576.74 652.88L576.44 652.98L563.07 652.98L562.27 652.87L561.71 652.53L561.7 652.52L561.36 651.96L561.25 651.16L561.25 563.48L561.33 563.21L561.53 563.06L561.76 563.02L561.88 563.04L561.96 563.1L561.98 563.18L561.98 648.83L562.06 649.07L562.29 649.15zM567.93 566.41L567.77 566.04L567.4 565.88L567.03 566.04L566.87 566.41L567.03 566.78L567.4 566.94L567.77 566.78L567.93 566.41zM562.21 650.24L562.05 651.58L562.09 651.75L562.13 651.83L562.36 651.95L562.58 651.83L562.89 651.08L562.77 650.24L562.49 649.88L562.21 650.24z" stroke="none" fill="#000000" fill-rule="nonzero" />
    <path d="M421.51 638.91L450.27 639.07L453.51 639.2L456.24 639.58L456.71 639.84L456.87 640.37L456.87 652.56L456.77 652.87L456.44 652.99L409.9 652.85L407.69 652.77L406.96 652.6L406.5 652.26L406.4 652.1L406.44 651.19L406.56 650.8L406.61 650.23L406.41 637.76L406.43 626.75L406.37 610.21L405.69 596.94L405.54 592.1L405.48 588.25L405.1 574.54L405.1 563.98L405.33 563.31L405.96 563.02L410.58 562.55L415.2 562.45L421.29 562.85L421.67 563.1L421.7 563.55L421.63 563.67L420.7 564.85L420.5 565.3L420.55 565.77L420.91 566.74L420.98 566.98L421.01 567.3L421.01 638.4L421.13 638.78L421.51 638.91zM406.33 564.19L406.31 564.26L406.52 564.3L406.62 564.12L406.6 564.09L406.42 564.05L406.41 564.07L406.33 564.19zM416.38 564.16L416.06 564.53L416.1 564.63L416.34 564.77L416.6 564.68L416.63 564.64L416.74 564.3L416.7 564.21L416.38 564.16zM451.55 640.26L451.09 640.49L451.07 640.58L451.25 640.88L451.59 640.88L451.71 640.77L451.84 640.33L451.55 640.26z" stroke="none" fill="#000000" fill-rule="nonzero" />
    <path d="M763.46 642.99L763.66 642.98L763.74 643.03L763.77 643.4L762.07 645.37L760.34 647.05L758.59 648.46L756.82 649.58L750.09 652.5L746.7 653.5L742.98 653.93L733.18 654.07L729.77 653.93L727.37 653.65L724.48 652.99L721.73 652.1L719.11 650.99L716.63 649.64L713.58 647.52L710.77 645.01L709.35 643.37L707.95 641.34L706.57 638.91L705.22 636.08L705.14 635.61L705.31 635.2L705.76 634.39L705.91 633.57L705.5 632.28L705.2 631.99L705.1 632.4L705.1 634L704.99 634.39L704.66 634.15L704.08 633.23L703.83 632.38L703.18 627.4L702.31 623.15L702.02 620.8L702.07 619.83L702.2 618.91L702.41 616.93L702.29 615.44L701.88 612.37L701.99 609.1L702.4 602.84L702.03 562.9L702.15 562.53L702.54 562.41L709.93 562.56L717.09 562.27L717.66 562.42L717.86 562.98L717.86 610.99L717.98 616.96L718.41 624.48L718.71 626.98L719.24 629.36L720.01 631.6L721.02 633.71L721.49 634.51L721.61 634.88L721.54 635.25L721.43 635.55L721.43 635.71L721.58 635.79L722.95 636.1L723.93 636.64L725.68 637.9L728.18 639.39L730.08 639.95L733.01 640.09L740.25 640.16L742.88 639.83L745.58 638.83L752.35 634.92L752.64 634.57L752.47 634.16L752.21 633.77L752.16 633.3L752.74 633.34L753.27 633.74L753.6 633.9L753.79 633.6L753.8 632.95L753.55 632.21L753.41 631.76L753.46 631.25L754.93 625.17L755.25 622.57L755.74 620.27L756.36 617.53L756.62 615.42L756.94 606.3L757.08 596.22L756.82 569.77L756.8 568.25L756.59 567.78L756.14 567.65L756.04 567.68L755.51 567.67L755.24 567.52L755.49 567.35L756.36 567.03L756.81 566.71L756.96 566.17L756.96 563.49L757.1 563.03L757.55 562.82L760.58 562.5L763.71 562.39L770.3 562.76L770.71 562.94L770.85 563.33L771.01 568.08L770.95 575.16L770.9 579.11L770.85 598.12L770.58 618.5L770.62 622.27L770.88 625.29L770.8 625.7L770.38 625.81L770.25 625.79L769.61 625.35L769.2 625.11L768.87 625.43L768.86 625.45L768.94 626.3L769.05 626.54L769.83 628.68L769.87 630.5L769.76 630.95L768.36 634.95L766.66 638.72L766.42 638.91L766.12 638.84L766.07 638.8L766 638.72L765.9 638.51L765.89 637.99L766.35 637.74L766.6 637.65L766.8 637.39L766.81 637.07L765.54 633.25L765.06 632.44L764.51 632.07L764.12 632.1L764.19 632.51L765.76 635.5L766.01 636.27L765.99 637.05L765.69 637.72L765.17 638.17L765.14 638.88L765.64 640.71L765.5 641.08L763.43 642.6L763.06 643.05L763.46 642.99zM716.29 565.49L716.43 565.69L716.52 565.69L716.57 565.68L716.71 565.53L716.75 565.26L716.59 565.16L716.53 565.15L716.29 565.49zM703.35 567.6L703.37 567.64L703.63 567.62L703.7 567.34L703.62 567.25L703.47 567.2L703.39 567.22L703.33 567.27L703.35 567.6zM703.3698 613.0098L703.6015 612.2923L703.68 610.5658L703.5593 608.8419L703.3102 608.1302L703.0785 608.8477L703 610.5742L703.1207 612.2981L703.3698 613.0098zM703.39 622.9L703.44 622.9L703.65 622.08L703.42 619.9L703.34 618.88L703.35 618.87L703.35 618.88L703.3 619.9L703.12 622.08L703.35 622.9L703.39 622.9zM758.3373 625.1278L758.6698 624.9705L758.8384 624.5377L758.7444 624.0827L758.4427 623.8722L758.1102 624.0295L757.9416 624.4623L758.0356 624.9173L758.3373 625.1278zM713.24 628.07L712.87 629.28L712.94 629.75L713.2 630.13L713.55 629.83L713.97 628.93L713.99 628.18L713.92 628.04L713.58 627.88L713.24 628.07zM757.36 628.09L756.86 628.58L756.69 629.06L757.11 629.81L757.39 629.91L757.66 629.77L758.05 629.18L758.13 628.64L757.89 628.16L757.63 628L757.36 628.09zM768.2254 632.0894L768.6662 631.6515L769.0037 630.4804L769.0403 629.2623L768.7546 628.7106L768.3138 629.1485L767.9763 630.3196L767.9397 631.5377L768.2254 632.0894zM710.89 632.53L710.77 632.23L710.47 632.11L710.17 632.23L710.05 632.53L710.17 632.83L710.47 632.95L710.77 632.83L710.89 632.53zM754.16 636.07L754.12 636.14L754.1 636.66L754.3 636.9L754.61 636.93L754.62 636.93L754.77 636.82L754.67 636.12L754.46 635.96L754.2 636.03L754.16 636.07zM707.5365 638.9082L707.7528 638.6305L707.8093 637.9893L707.6729 637.3602L707.4235 637.1118L707.2072 637.3895L707.1507 638.0307L707.2871 638.6598L707.5365 638.9082zM719.96 637.37L720.13 637.91L720.47 638.12L720.99 638.16L721.23 638.05L721.18 637.8L720.42 637.06L720.36 637.04L720.08 637.11L719.96 637.37zM756.26 637.18L756.03 637.41L756.08 637.72L756.28 637.93L756.54 637.99L756.85 637.82L756.91 637.47L756.86 637.37L756.56 637.13L756.26 637.18zM723.56 637.37L722.09 637.91L721.77 638.18L721.97 638.55L722.21 638.7L722.89 638.69L723.55 638.23L723.75 637.5L723.75 637.48L723.56 637.37zM751.36 638.1L751.06 638.58L751.05 638.89L751.33 639.02L751.53 638.99L751.78 638.77L751.9 638.24L751.83 638.12L751.61 638L751.38 638.07L751.36 638.1zM748.67 638.51L748.35 638.56L748.24 638.85L748.32 639.01L749.41 639.84L749.57 639.89L749.73 639.84L749.97 639.44L749.95 639.13L749.7 638.92L748.67 638.51zM726.28 639.48L726.45 639.72L726.56 639.68L726.58 639.33L726.52 639.3L726.29 639.3L726.28 639.48zM711.18 641.3L711.16 641.61L711.33 641.88L711.61 641.99L711.79 641.75L711.8 641.32L711.62 641.15L711.6 641.14L711.18 641.3zM733.73 641.22L733.31 641.42L733.66 641.76L734.45 641.84L735.78 641.48L736.22 641.21L735.75 641.05L733.73 641.22zM738.08 641.25L737.9 641.36L738.01 641.55L738.76 641.89L739.67 641.59L739.91 641.28L739.54 641.13L738.08 641.25zM761.2 641.21L761.05 641.45L761.14 641.7L761.28 641.82L761.73 641.73L761.87 641.35L761.65 641.05L761.2 641.21zM761.14 644.41L761.08 644.8L761.52 644.64L762.31 643.99L762.66 643.34L762.63 643.05L762.37 643.16L761.14 644.41zM710.82 643.53L710.52 643.51L710.6 643.79L711.15 644.43L711.64 644.61L711.53 644.14L711.31 643.83L710.82 643.53zM757.78 646.67L756.42 648.12L756.1 648.79L756.11 648.8L756.12 648.8L756.79 648.51L758.27 647.18L759.64 645.73L759.96 645.06L759.95 645.05L759.94 645.04L759.26 645.34L757.78 646.67zM754.26 649.44L754.32 649.58L754.82 649.6L755.02 649.41L754.99 649.13L754.93 649.07L754.65 648.95L754.43 649.05L754.28 649.26L754.26 649.44zM749.54 651.4L749.3 651.55L749.29 651.59L749.31 651.68L749.41 651.71L749.64 651.61L749.67 651.5L749.67 651.49L749.54 651.4zM746.67 652.62L746.83 652.48L746.63 652.42L744.84 652.5L744.51 652.73L744.85 652.87L745.77 652.88L746.59 652.66L746.67 652.62z" stroke="none" fill="#000000" fill-rule="nonzero" />
    <path d="M387.63 652.08L387.79 652.36L387.83 652.73L387.49 652.85L375.03 652.85L374.22 652.74L373.64 652.39L373.29 651.81L373.16 650.99L373 612.33L373.07 568.5L373.35 563.55L373.5 563.15L373.89 562.97L380.14 562.5L385.96 562.77L386.73 563.16L387.05 563.97L387.76 611.79L387.8 631L387.63 647.08L387.52 648.26L387.46 648.9L387.56 649.11L387.78 649.55L387.86 650.38L387.57 651.32L387.49 651.72L387.63 652.08zM385.15 566.18L384.83 566.51L385.21 566.77L385.25 566.78L385.79 566.46L385.84 566.22L385.68 566.04L385.59 566.03L385.15 566.18zM385.39 648.17L385.32 648.2L385.18 648.4L385.26 648.64L385.33 648.7L385.5 648.72L385.73 648.61L385.78 648.36L385.7 648.19L385.39 648.17zM374.23 651.77L374.13 651.89L374.29 651.82L374.32 651.81L374.36 651.74L374.37 651.66L374.23 651.77z" stroke="none" fill="#000000" fill-rule="nonzero" />
    <path transform="matrix(0.28903192 0.95731944 -0.95731944 0.28903192 388.31 563.85)"  d="M-0.89 0C -0.89 -0.325848 -0.49153346 -0.59 0 -0.59C 0.49153346 -0.59 0.89 -0.325848 0.89 0C 0.89 0.325848 0.49153346 0.59 0 0.59C -0.49153346 0.59 -0.89 0.325848 -0.89 0" stroke="none" fill="#000000" fill-rule="nonzero" />
    <path d="M755.62 563.07L755.99 563.03L756.15 563.23L756.17 563.29L756.1 563.53L755.87 563.64L755.41 563.47L755.38 563.36L755.39 563.29L755.62 563.07z" stroke="none" fill="#000000" fill-rule="nonzero" />
    <path d="M199.22 563.43L199.42 563.37L199.72 563.7L199.73 563.88L199.58 564L199.3 563.99L199.1 563.79L199.14 563.5L199.22 563.43z" stroke="none" fill="#000000" fill-rule="nonzero" />
    <path d="M804 580.62L804 578.03L804.06 577.86L804.24 577.86L804.69 578.02L804.8 578.11L804.84 578.24L804.84 580.48L804.77 580.69L804.56 580.76L804.14 580.76L804.04 580.73L804 580.62z" stroke="none" fill="#000000" fill-rule="nonzero" />
    <path transform="matrix(0.02443233 0.99970144 -0.99970144 0.02443233 266.36 613.78)"  d="M-2.64 0C -2.64 -0.13254835 -1.4580319 -0.24 0 -0.24C 1.4580319 -0.24 2.64 -0.13254835 2.64 0C 2.64 0.13254835 1.4580319 0.24 0 0.24C -1.4580319 0.24 -2.64 0.13254835 -2.64 0" stroke="none" fill="#000000" fill-rule="nonzero" />
    <path d="M333.11 619.05L333.13 618.99L333.35 618.82L333.62 618.87L333.78 619.05L333.81 619.47L333.63 619.74L333.32 619.71L333.16 619.6L333.11 619.05z" stroke="none" fill="#000000" fill-rule="nonzero" />
    <path d="M639.56 632.83L639.83 632.99L640.05 633.33L639.9 633.59L639.72 633.72L639.23 633.68L635.79 630.5L635.59 630.17L636.26 630.09L637.2 630.71L639.09 632.47L639.24 632.61L639.56 632.83z" stroke="none" fill="#000000" fill-rule="nonzero" />
    <path transform="matrix(-0.6896196 0.7241718 -0.7241718 -0.6896196 676.37 636.35)"  d="M-1.98 0C -1.98 -0.24852814 -1.0935239 -0.45 0 -0.45C 1.0935239 -0.45 1.98 -0.24852814 1.98 0C 1.98 0.24852814 1.0935239 0.45 0 0.45C -1.0935239 0.45 -1.98 0.24852814 -1.98 0" stroke="none" fill="#000000" fill-rule="nonzero" />
    <path d="M466.49 733.04L466.03 733.61L465.6 733.82L465.12 733.82L463.63 733.33L462.01 732.48L461.73 732.2L461.62 731.8L461.61 731.74L461.45 731.47L461.41 731.44L461.01 731.57L460.66 731.95L460.51 731.94L457.35 730.71L454.58 728.99L453 727.62L452.87 727.23L453.11 726.9L453.24 726.86L454 726.47L454.14 726.18L454.12 725.77L453.88 725.44L453.3 725.13L452.77 725.09L452.13 725.46L451.51 725.71L450.91 725.4L450.85 725.31L449.5 722.3L448.94 719.25L448.98 717.42L449.29 715.57L449.59 714.96L449.74 714.86L450.31 714.78L450.71 714.71L450.96 714.36L451 714.06L450.94 713.9L450.75 713.89L450.24 714.08L449.95 714.05L449.8 713.8L449.8 713.71L450.28 712.33L451.09 711.37L451.3 711.23L451.7 711.14L451.86 711.6L451.21 712.87L451.14 713.17L451.45 713.14L451.99 712.71L452.46 711.94L452.87 710.38L452.99 709.9L453.27 709.47L454.47 708.33L455.73 707.41L457.04 706.7L458.42 706.2L458.57 706.16L463.38 705.22L465.23 705.16L466.82 705.54L468.36 706.33L468.81 706.53L469.3 706.53L470.21 706.43L471.46 706.52L472.73 706.84L473.99 707.41L475.27 708.22L475.53 708.52L475.63 708.93L475.63 709.78L475.76 710.23L476.14 710.5L476.43 710.57L477.49 710.28L477.8 710.18L477.76 710.51L477.49 711.17L477.46 711.6L477.78 711.89L478.71 712.45L479.41 713.17L480 714.45L480.14 716.06L479.91 716.61L479.37 716.86L477.16 716.92L474.65 716.72L474.51 716.69L473.94 716L473.67 714.45L473.65 714.43L473.64 714.43L472.97 714.67L472.55 714.69L472.24 714.42L471.36 713.16L470.43 712.2L469.43 711.55L468.39 711.2L468.19 711.17L466.1 710.61L465.47 710.18L465.12 709.66L465.1 709.58L464.82 709.19L464.37 709.35L463.08 710.37L462.8 710.5L459.36 711.73L458.18 712.4L457.17 713.24L456.02 714.76L455.11 716.82L454.96 717.43L455.08 719.2L455.99 721.09L457.63 723.24L459.71 725.39L460 725.76L460.16 726.16L460.34 726.68L460.7 726.97L460.95 726.52L461.14 726.18L461.91 726.06L465 727.46L465.33 727.77L465.26 728.22L465.14 728.53L465.34 728.87L465.54 728.88L465.68 728.82L465.9 728.59L466.22 728.27L466.69 728.22L468.35 728.73L470.25 729.71L470.45 729.93L470.19 730.06L469.33 730.28L468.97 730.62L469.54 730.88L469.98 730.86L470.56 730.41L470.87 730.17L471.24 730.23L475.49 732.42L475.72 732.66L475.61 732.98L475.42 733.22L475.37 733.49L475.55 733.68L475.65 733.7L476.61 733.83L477.3 734.24L477.5 734.49L477.61 734.95L477.18 735.13L476.38 735.37L476.13 735.66L476.5 735.75L478.02 735.94L479.13 736.57L479.9 737.87L480.09 739.77L479.98 740.03L479.71 740.03L479.41 739.92L479.2 739.91L479.06 740.08L478.98 740.43L479.14 740.78L479.52 740.78L480.07 740.58L480.19 740.58L480.28 740.66L480.85 741.96L481.03 742.77L480.76 745.41L480.16 747.77L479.24 749.84L477.98 751.63L476.43 753.11L474.56 754.32L472.37 755.25L469.87 755.91L469.22 755.84L468.91 755.54L468.39 754.95L468.36 755.38L468.44 755.9L468.37 756.29L468.06 756.48L467.11 756.69L464.86 756.95L462.42 756.9L459.65 756.53L456 755.77L455.12 755.46L454.41 754.96L453.8 754.13L453.43 753.05L453.01 752.32L452.56 752.19L452.19 752.29L452.37 752.62L453.03 753.28L453.07 753.33L453.1 753.58L452.92 753.75L452.65 753.85L452.57 753.86L452.49 753.81L450.31 751.64L450.14 751.28L450.31 750.93L450.69 750.55L450.62 750.18L450.54 750.16L449.29 749.95L448.3 749.42L447.38 748.14L447.12 747.53L446.55 746.03L446.48 744.97L446.73 744.25L447.28 743.49L447.72 743.12L448.87 742.82L450.39 743.12L450.9 743.45L451.04 743.84L450.65 743.97L449.36 743.97L449.13 744.05L449.13 744.29L449.3 744.75L449.65 744.95L451.19 744.86L452.45 745.17L453.25 745.83L454.07 747.07L454.79 747.92L455.95 748.66L456.12 748.78L456.27 749.32L455.92 749.76L455.49 749.99L455.13 750.46L455.09 750.81L455.38 751.04L456.02 751.14L456.42 750.96L456.95 750.41L457.33 750.2L457.76 750.29L457.79 750.31L458.68 751.27L459.23 752.73L459.25 752.8L459.57 753.06L460.01 753L461.08 752.39L461.58 752.19L462.11 752.12L467.42 752.12L467.85 752.22L468.16 752.5L468.65 752.89L469.46 752.81L469.67 752.62L469.55 752.36L469.49 752.31L469.19 752.22L468.6 752.03L468.89 751.61L472.18 748.75L473.11 747.66L473.58 746.79L474.06 744.69L474.18 742.78L473.95 741.06L473.37 739.53L472.52 738.3L471.38 737.22L469.95 736.3L468.22 735.53L467.38 735.07L466.88 734.45L466.75 733.37L466.75 732.73L466.49 733.04zM465.2283 706.6063L464.613 706.2348L463.0997 706.0304L461.5749 706.1128L460.9317 706.4337L461.547 706.8052L463.0603 707.0096L464.5851 706.9272L465.2283 706.6063zM459.0648 707.2301L458.7127 706.9708L458.0135 706.9922L457.3766 707.2818L457.1752 707.6699L457.5273 707.9292L458.2265 707.9078L458.8634 707.6182L459.0648 707.2301zM469.9464 708.3798L469.7348 708.1886L469.2483 708.1042L467.7779 708.2889L466.3966 708.8258L466.0088 709.1314L465.9136 709.4002L466.1252 709.5914L466.6117 709.6758L468.0821 709.4911L469.4634 708.9542L469.8512 708.6486L469.9464 708.3798zM473.06 708.71L473.56 708.87L473.83 708.75L473.88 708.5L473.78 708.4L473.17 708.42L473.03 708.54L473.06 708.71zM456.93 709.61L456.8 709.3L456.49 709.17L456.18 709.3L456.05 709.61L456.18 709.92L456.49 710.05L456.8 709.92L456.93 709.61zM460.4 709.05L460.26 709.77L460.3 709.83L460.56 709.93L460.79 709.79L460.82 709.11L460.63 708.94L460.4 709.04L460.4 709.05zM454.3 709.48L454.28 709.49L454.24 709.86L454.39 709.97L454.79 709.92L454.93 709.61L454.77 709.37L454.3 709.48zM458.15 710.42L458.12 710.53L458.24 710.79L458.53 710.84L458.91 710.27L458.89 710.03L458.69 709.9L458.63 709.9L458.15 710.42zM472.62 713.07L472.66 713.1L472.78 712.98L472.44 712.04L471.92 711.26L470.93 710.47L469.61 709.96L469.45 709.96L469.28 710.06L469.05 710.28L469.09 710.59L469.13 710.61L470.93 711.55L472.62 713.07zM473.85 711.51L474.4 712.57L474.73 713.07L474.92 712.51L474.86 711.85L474.53 711.11L474.04 710.46L473.49 710.09L472.9 709.99L473.19 710.52L473.85 711.51zM456.34 712.98L456.73 712.54L456.78 712.18L456.65 712L456.48 711.94L456.29 712.05L455.08 713.6L455.23 713.84L455.37 713.9L455.66 713.79L455.95 713.45L456.34 712.98zM475.12 715.14L475.17 715.54L475.45 715.71L475.68 715.69L475.8 715.51L475.64 715.03L475.4 714.91L475.16 715.04L475.12 715.14zM478.4 714.97L478.07 715.4L478.03 715.63L478.16 715.88L478.44 715.92L478.52 715.88L478.87 715.38L478.82 715.08L478.65 714.89L478.4 714.97zM454.24 720.25L454.24 720.62L454.38 720.88L454.46 720.95L454.74 720.95L454.89 720.73L454.73 720.17L454.66 720.1L454.41 720.06L454.24 720.25zM451.67 724.26L451.69 724.59L452.01 724.48L452.69 723.81L452.95 723.1L452.74 722.28L452.36 721.93L452.1 722.39L451.67 724.26zM456.68 724.45L457.33 724.89L457.62 724.82L457.57 724.52L457 723.7L456.35 723.23L456.11 723.21L456.05 723.44L456.14 723.72L456.68 724.45zM457.11 726.39L457.1 726.6L457.18 726.8L457.43 726.99L457.72 726.95L457.92 726.74L457.91 726.46L457.89 726.41L457.5 726.15L457.25 726.16L457.11 726.39zM462.2 727.21L462.12 727.58L462.16 727.62L462.49 727.75L462.68 727.73L462.91 727.57L462.84 727.31L462.67 727.16L462.2 727.21zM454.43 727.6L455.01 728.53L455.55 728.83L455.58 728.25L455.28 727.66L454.6 727.35L454.39 727.39L454.43 727.6zM467.32 729.46L467.4 729.78L467.42 729.8L467.62 729.88L467.79 729.76L467.87 729.45L467.77 729.29L467.53 729.22L467.34 729.38L467.32 729.46zM466.83 731.69L466.77 731.8L466.84 732.04L467.08 732.11L467.75 731.69L467.83 731.49L467.7 731.07L467.37 731.17L466.83 731.69zM470.64 735.47L470.53 735.22L470.28 735.11L470.03 735.22L469.92 735.47L470.03 735.72L470.28 735.83L470.53 735.72L470.64 735.47zM473.31 737.27L473.29 737.58L473.42 737.78L473.67 737.9L473.85 737.71L473.89 737.27L473.72 737.1L473.69 737.09L473.31 737.27zM478.8572 738.9876L478.9109 738.6497L478.6595 738.271L478.2502 738.0733L477.9228 738.1724L477.8691 738.5103L478.1205 738.889L478.5298 739.0867L478.8572 738.9876zM474.26 739.36L474.3 739.89L474.55 740.06L474.6 740.07L474.88 739.78L474.61 739.17L474.6 739.17L474.39 739.18L474.26 739.36zM475.26 744.64L475.65 744.94L475.94 744.83L476.1 744.25L475.87 743.46L475.74 743.25L475.48 743.12L475.23 743.24L475.18 743.33L475.26 744.64zM479.38 743.16L478.88 743.84L478.88 744.03L479.05 744.11L479.19 744.12L479.33 744.11L479.36 744.11L479.64 743.81L479.65 743.79L479.65 743.24L479.64 743.21L479.38 743.16zM477.22 744.09L477.16 744.16L477.14 744.45L477.36 744.63L477.93 744.59L478.13 744.39L478.2 744.15L477.99 743.99L477.38 743.98L477.22 744.09zM452.2 746.35L452.18 746.59L452.36 746.74L452.6 746.77L452.72 746.66L452.71 746.52L452.4 746.14L452.2 746.35zM450.05 747.53L449.92 747.23L449.62 747.1L449.32 747.23L449.19 747.53L449.32 747.83L449.62 747.96L449.92 747.83L450.05 747.53zM474.7437 747.7668L474.9814 747.5951L475.0249 747.3325L474.8488 747.1329L474.5563 747.1132L474.3186 747.2849L474.2751 747.5475L474.4512 747.7471L474.7437 747.7668zM472.46 749.95L472.09 750.37L472.11 750.55L472.48 750.7L472.51 750.68L472.85 750.19L472.82 750.07L472.67 749.91L472.46 749.95zM453.01 750.51L453.16 750.81L453.25 750.84L453.88 750.69L453.69 750.12L453.6 750.04L453.29 750.05L453.01 750.51zM474.97 752.58L473.42 753.46L473.18 753.66L473.16 753.84L473.33 753.89L474.2 753.65L475.28 753.02L476.24 752.22L476.76 751.48L476.77 751.3L476.59 751.26L476.32 751.42L474.97 752.58zM465.25 753.17L465.08 753.45L465.09 753.48L465.67 754.09L466.29 754.07L466.91 753.63L466.37 753.11L465.25 753.17zM471.18 753.25L471.11 753.56L471.33 753.77L471.68 753.81L471.82 753.71L471.94 753.43L471.73 753.2L471.3 753.13L471.18 753.25zM463.93 753.61L463.81 753.33L463.53 753.21L463.25 753.33L463.13 753.61L463.25 753.89L463.53 754.01L463.81 753.89L463.93 753.61z" stroke="none" fill="#000000" fill-rule="nonzero" />
    <path d="M573.3 752.29L573.12 752.78L572.73 753.33L572.36 752.76L570.04 746.72L569.84 744.75L569.98 744.32L570.37 744.07L570.56 743.96L570.68 743.79L570.7 743.47L570.38 743.44L570.11 743.5L568.85 743.56L567.28 743.28L565.74 743.01L558.84 742.82L551.72 742.99L551.02 743.24L550.57 743.83L548.85 748.53L548.59 748.85L548.18 748.83L548.16 748.82L547.86 748.6L547.33 748.27L547.06 748.4L546.9 748.81L546.89 748.92L547.01 749.22L547.77 750.61L548.02 752L547.87 753.07L547.4 754.15L546.8 754.95L546.07 755.52L545.15 755.88L544.08 755.98L540.43 755.68L540 755.45L540.02 754.95L543.8 744.54L545.23 740.54L546.4 737.46L547.25 734.37L547.57 733.8L548.05 734.31L548.23 734.68L548.44 734.89L548.65 734.63L548.72 733.92L548.28 733.26L548 732.84L548.03 732.33L555.2 712.4L555.62 710.92L556.41 708.44L556.9 707.61L557.58 706.87L558.19 706.44L559.77 705.79L561.12 705.85L561.77 706.19L562.36 706.76L563.3 708.56L567.81 720.72L567.95 721.29L567.86 721.76L567.65 722.02L567.25 722.6L567.5 722.71L567.99 722.76L568.53 722.96L568.86 723.43L573.86 737.09L573.89 737.5L573.63 737.84L573.18 738.19L573.01 738.57L573.25 738.68L573.85 738.74L574.35 738.91L574.69 739.31L577.9 747.16L577.91 747.18L577.92 748.19L577.29 749.43L577.19 749.77L577.52 749.88L578.14 749.88L578.47 749.97L578.67 750.24L578.71 750.43L578.58 750.83L578.46 751.24L578.7 751.59L578.78 751.65L580.03 753.05L580.89 754.92L580.87 755.67L580.19 755.98L577.07 756.02L574.27 755.59L573.75 755.33L573.39 754.89L573.27 754.35L573.4 753.83L573.6 753.58L573.91 753.06L573.67 752.24L573.46 752.09L573.3 752.29zM557.15 709.8L557.34 710.03L557.64 710.01L557.72 709.95L558.02 709.42L557.97 708.49L557.71 708.14L557.38 708.42L557.16 708.93L557.15 709.8zM558.3 711.96L558.13 712.24L558.1 712.77L558.26 712.97L558.51 712.97L558.57 712.92L558.83 712.44L558.68 711.98L558.66 711.96L558.3 711.96zM561.57 716.92L561.14 717.34L561.06 717.51L561.14 717.67L561.45 717.85L561.65 717.84L561.74 717.66L561.96 716.81L562.78 715.59L562.86 715.4L562.72 715.28L562.44 715.16L562.33 715.15L562.25 715.22L561.91 716.11L561.8 716.59L561.57 716.92zM556.17 724.77L555.48 724.22L555.08 724.27L555.07 724.29L554.94 724.62L554.97 725.15L555.67 726.35L555.91 727.29L555.83 728.02L555.52 728.84L554.2 731.98L552.9 736.13L552.85 736.92L553.13 737.66L553.68 738.21L554.4 738.47L554.68 738.48L565.97 738.03L566.62 737.91L567.01 737.62L567.15 737.15L567.04 736.52L563.72 726.86L560.44 718.73L560.29 718.49L559.92 718.21L559.47 718.12L559.02 718.25L558.67 718.56L558.19 719.53L558.09 721.03L557.82 722.48L556.71 724.66L556.47 724.87L556.17 724.77zM562.24 720.44L562.35 720.73L562.55 720.84L562.74 720.82L562.73 720.63L562.38 720.13L562.37 720.13L562.32 720.15L562.24 720.44zM556.93 721.69L556.61 720.98L556.09 721.63L556.05 721.76L556.12 722.53L556.37 722.81L556.7 722.64L556.82 722.47L556.93 721.69zM565.4 728.58L565.49 728.67L565.6 728.59L565.65 728.39L565.5 728.3L565.36 728.32L565.4 728.58zM569.43 728.41L569.37 728.74L569.46 728.8L569.56 728.75L569.67 728.5L569.61 728.39L569.6 728.38L569.43 728.41zM553.18 730.25L553.14 730.6L553.24 730.76L553.58 730.81L553.73 730.67L553.72 730.27L553.51 730.09L553.25 730.16L553.18 730.25zM570.4833 730.7073L570.7151 730.3419L570.3167 730.1727L570.0849 730.5381L570.4833 730.7073zM552.43 733.16L552.26 733.35L552.28 733.76L552.32 733.82L552.68 733.79L552.81 733.37L552.8 733.3L552.43 733.16zM567.32 733.34L567.35 733.49L567.4 733.6L567.53 733.7L567.68 733.67L567.83 733.51L567.84 733.36L567.65 733.12L567.38 733.17L567.32 733.34zM551.52 735.92L551.08 736.4L551.29 736.93L551.78 736.6L551.85 736.48L551.68 735.95L551.6 735.89L551.52 735.92zM569.99 737.8448L569.7968 737.4057L569.1134 737.0336L568.3401 736.9464L567.93 737.1952L568.1232 737.6343L568.8066 738.0064L569.5799 738.0936L569.99 737.8448zM552.13 738.62L552.42 738.72L552.54 738.69L552.73 738.45L552.65 738.16L552.56 738.09L552.28 738.04L552.09 738.15L551.98 738.4L552.13 738.62zM566.45 739L566.24 739.34L566.26 739.52L566.38 739.7L566.58 739.7L566.72 739.62L566.82 739.15L566.7 738.91L566.45 739zM551.12 741.25L551.08 741.49L551.12 741.66L551.33 741.84L551.6 741.76L551.66 741.68L551.73 741.17L551.57 741.05L551.3 741.04L551.12 741.25zM564.41 741.17L564.22 741.34L564.28 741.58L564.47 741.73L564.62 741.69L564.73 741.57L564.76 741.44L564.67 741.16L564.41 741.17zM556.35 741.56L556.35 741.57L556.53 741.66L556.81 741.47L556.81 741.46L556.78 741.31L556.53 741.29L556.37 741.4L556.35 741.56zM545.1 744L545.19 744.32L545.45 744.1L545.84 743.33L545.87 742.7L545.63 742.34L545.28 742.62L545.1 744zM572.12 744.73L572.15 744.81L572.37 744.94L572.61 744.85L572.94 744.21L572.78 743.32L572.72 743.23L572.42 743.14L572.17 743.32L572.03 743.93L572.12 744.73zM544.38 745.97L544.14 746.49L544.14 746.5L544.31 746.9L544.63 746.57L544.69 746.44L544.71 746.07L544.6 745.85L544.38 745.97zM571.24 746.43L571.27 746.69L571.48 746.84L571.53 746.84L571.87 746.73L571.98 746.59L572.02 746.27L571.8 746.03L571.58 745.98L571.24 746.43zM576.8 746.59L576.69 746.31L576.41 746.2L576.13 746.31L576.02 746.59L576.13 746.87L576.41 746.98L576.69 746.87L576.8 746.59zM543.67 748.02L543.31 748.49L543.34 748.87L543.75 748.66L543.87 748.51L543.97 748.16L543.91 747.92L543.67 748.02zM572.19 749.39L572.5 749.89L572.54 749.92L572.78 749.78L572.64 749.12L572.63 749.12L572.24 748.96L572.19 749.39zM546.19 752.14L546.07 752.49L546.19 752.8L546.44 752.95L546.67 752.79L546.79 752.49L546.68 752.14L546.44 751.97L546.19 752.14zM579.58 754.16L579.51 754.17L579.33 754.31L579.34 754.54L579.47 754.68L579.64 754.73L579.85 754.67L579.88 754.47L579.75 754.22L579.58 754.16z" stroke="none" fill="#000000" fill-rule="nonzero" />
    <path d="M521.89 708.5L522.23 708.38L522.24 708.38L522.69 708.4L522.98 708.74L523.2 709.16L523.74 709.6L524.54 709.83L524.67 709.86L525.41 710.26L527.09 711.96L527.86 712.9L528.4 713.9L529.38 716.64L529.96 719.31L530.15 721.92L529.94 724.47L529.39 726.83L528.48 729.14L527.21 731.39L525.59 733.58L525.25 733.75L524.9 733.63L524.88 733.61L524.66 733.4L524.39 733.32L524.18 733.5L524.16 733.63L524.11 734.68L523.73 735.43L522.75 735.96L520.51 736.51L518.68 737.67L518.2 737.9L517.71 737.97L506.12 737.97L505.17 738.11L504.5 738.51L504.09 739.19L503.96 740.13L503.96 754.73L503.67 755.59L502.81 755.88L498.63 755.88L498.03 755.76L497.52 755.42L497.18 754.91L497.06 754.31L497.06 706.44L497.15 706.15L497.44 706.05L513 705.99L515.96 706.21L519.13 706.86L520.33 707.35L521.18 708.11L521.32 708.31L521.57 708.52L521.89 708.5zM498.26 707.26L498.16 707.57L498.36 707.85L498.6 707.92L498.78 707.75L498.81 707.67L498.7 707.27L498.49 707.12L498.26 707.26zM515 710.29L504.97 710.01L504.96 710.02L504.95 710.24L505.15 710.53L505.74 710.79L507.67 711.07L512.25 711.19L514.19 711.03L514.79 710.8L515.01 710.52L515.01 710.3L515 710.29zM521.34 710.52L521.48 710.79L521.53 710.8L521.7 710.62L521.6 710.37L521.53 710.34L521.34 710.49L521.34 710.52zM502.12 711.33L502.11 711.42L502.38 711.64L502.55 711.65L502.67 711.58L502.79 711.33L502.75 711.21L502.44 710.91L502.12 711.33zM518.63 712.05L518.93 711.91L518.94 711.88L518.93 711.38L518.63 711.11L518.52 711.11L514.73 711.43L511.14 711.26L508.7 711.32L507.93 711.49L506.41 711.76L504.5 711.81L504.09 711.97L503.91 712.37L503.91 712.38L503.91 732.51L504.07 732.91L504.47 733.08L513.74 733.13L516.11 732.32L521.07 729.89L521.17 729.83L521.39 729.58L521.47 729.19L521.45 729.13L521.4 728.81L521.48 728.53L522.34 726.57L522.92 724.63L523.2 722.72L523.2 720.83L522.91 718.96L522.34 717.12L521.48 715.3L520.33 713.5L520.15 713.05L520.63 713.09L520.82 713.17L521.45 713.7L521.62 713.82L521.73 713.74L521.74 713.73L521.81 713.51L521.79 713.48L520.72 712.41L519.49 711.81L519.24 711.82L519.15 712.06L519.15 712.37L519.07 712.64L518.83 712.76L518.68 712.76L518.42 712.6L518.27 712.23L518.63 712.05zM524.14 711.02L523.86 711.19L523.88 711.27L524.52 712.11L525.52 712.84L525.64 712.87L525.85 712.75L525.85 712.51L525.18 711.7L524.14 711.02zM522.96 714.5L523.18 714.88L523.53 715.1L523.75 714.77L523.72 714.3L523.6 714.15L523.27 714.03L523.08 714.11L522.96 714.5zM526.91 716.75L526.96 716.95L527.17 717.04L527.41 717L527.61 716.82L527.68 716.53L527.65 716.49L527.12 716.18L526.91 716.75zM527.47 728.7L527.49 728.4L527.19 728.41L526.53 728.86L525.98 729.71L525.92 730.02L526.03 730.3L526.36 730.56L526.64 730.53L526.81 730.32L527.47 728.7zM502.22 729.75L502.28 730.3L502.53 730.66L502.8 730.32L502.89 729.69L502.51 729.27L502.22 729.75zM523.87 730.52L523.35 731.28L523.2 731.72L523.65 731.68L524.4 731.13L524.56 730.75L524.55 730.29L524.28 729.89L523.76 729.46L523.47 729.36L523.45 729.59L523.57 729.81L523.62 729.85L523.9 730.16L523.88 730.51L523.87 730.52zM518.41 732.46L517.87 732.68L517.73 733.07L518.22 733.1L518.56 732.92L518.66 732.77L518.7 732.48L518.41 732.46zM517.2602 733.165L516.9321 732.9796L516.2396 733.0171L515.5884 733.2555L515.3598 733.555L515.6879 733.7404L516.3804 733.7029L517.0316 733.4645L517.2602 733.165zM511.41 734.14L509.89 734.32L509.57 734.47L509.88 734.62L511.49 734.59L512 734.37L511.41 734.14zM517.41 736.18L517.26 736.34L517.29 736.66L517.54 736.71L517.72 736.63L517.78 736.45L517.69 736.18L517.41 736.18zM502.14 742.89L502.1 743.24L502.14 743.29L502.25 743.35L502.52 743.29L502.61 743.03L502.42 742.68L502.36 742.68L502.34 742.68L502.14 742.89zM499.17 743.44L499.26 743.67L499.58 743.77L499.69 743.5L499.52 743.24L499.3 743.24L499.17 743.44zM498.33 752.29L498.39 752.58L498.48 752.33L498.48 752.25L498.45 752.18L498.36 752.09L498.33 752.29z" stroke="none" fill="#000000" fill-rule="nonzero" />
    <path d="M401.75 718.99L402.13 718.95L402.21 718.93L402.42 718.77L402.9 717.67L403.02 717.4L403.23 717.24L403.46 717.21L403.49 717.24L403.8 717.76L403.88 718.35L403.72 718.9L403.34 719.33L403.18 719.42L402.21 719.74L401 719.85L242.31 719.82L241.23 719.66L240.46 719.2L239.99 718.41L239.83 717.32L239.83 715.83L239.98 714.75L240.45 713.99L241.21 713.54L242.28 713.4L251.75 713.4L277.75 713.17L379.25 713.08L399.27 713.42L400.88 713.82L401.46 714.24L401.88 714.79L402.15 715.84L401.92 717.1L401.48 718.3L401.5 718.88L401.75 718.99zM240.95 716.68L241.36 718.41L241.71 718.83L242.09 719.01L242.25 719.02L242.62 718.86L242.57 718.47L242.17 717.45L241.97 716.54L241.91 715.6L242.03 714.51L241.97 714.12L241.57 714.07L241.42 714.12L241.1 714.4L240.88 714.89L240.95 716.68zM243.18 714.66L243.2 714.7L243.5 714.92L243.79 714.91L243.83 714.62L243.71 714.39L243.63 714.34L243.19 714.29L243.18 714.66zM246.08 714.5L246.14 714.62L246.49 714.57L246.52 714.33L246.47 714.3L246.13 714.3L246.08 714.5zM244.18 716.4L244.39 716.68L244.6 716.74L244.69 716.73L244.86 716.55L244.82 716.31L244.49 716L244.16 715.96L244.18 716.4zM400.37 716.2L400.27 716.44L400.28 716.53L400.38 716.71L400.59 716.67L400.85 716.36L400.85 716.35L400.69 715.96L400.37 716.2zM245.14 718.34L245.12 718.37L245.24 718.66L245.53 718.62L245.69 718.38L245.62 718.17L245.55 718.14L245.14 718.34z" stroke="none" fill="#000000" fill-rule="nonzero" />
    <path d="M622.09 714.12L622.41 713.34L623.19 713.02L777.29 713.02L779.85 713.16L782.01 713.57L783.46 714.19L783.84 714.54L783.97 714.91L783.97 718.11L783.84 718.48L783.46 718.83L782.01 719.45L779.85 719.86L777.29 720L623.19 720L622.41 719.68L622.09 718.9L622.09 714.12zM782.5291 718.7899L782.8604 718.2075L783.01 716.7948L782.8901 715.3793L782.5709 714.7901L782.2396 715.3725L782.09 716.7852L782.2099 718.2007L782.5291 718.7899z" stroke="none" fill="#000000" fill-rule="nonzero" />
</g>
</svg>
